<?xml version="1.0" encoding="UTF-8" standalone="no"?>
<!DOCTYPE svg  PUBLIC '-//W3C//DTD SVG 1.1//EN'  'http://www.w3.org/Graphics/SVG/1.1/DTD/svg11.dtd'>
<svg xmlns="http://www.w3.org/2000/svg">
<defs>
<font id="BrixtonMedium-Regular" horiz-adv-x="520">
<font-face underline-position="-50" font-weight="500" descent="-200" panose-1="2 11 0 0 0 0 0 0 0 0" units-per-em="1000" unicode-range="U+0020-25CA" bbox="-114 -247 1058 915" x-height="500" underline-thickness="50" font-family="BrixtonMedium" ascent="800" cap-height="700"/>
<missing-glyph horiz-adv-x="1000"/>
<glyph glyph-name=".notdef" horiz-adv-x="1000"/>
<glyph glyph-name=".null" horiz-adv-x="0"/>
<glyph glyph-name="nonmarkingreturn" horiz-adv-x="1000"/>
<glyph glyph-name="space" horiz-adv-x="212" unicode=" "/>
<glyph glyph-name="space" horiz-adv-x="212" unicode=" "/>
<glyph glyph-name="exclam" horiz-adv-x="190" unicode="!" d="M56 76h71v-67h-71v67zM68 153l-13 163l-8 101v280h88v-280l-10 -130q-3 -32 -5 -67t-4 -67h-48z"/>
<glyph glyph-name="quotedbl" horiz-adv-x="262" unicode='&quot;'/>
<glyph glyph-name="numbersign" horiz-adv-x="833" unicode="#" d="M550 527v-87h-99l-35 -158h134v-87h-153l-46 -206h-83q18 93 38 187q2 9 4 19h-129l-46 -206h-91l46 206h-77v87h96l35 158h-131v87h151l46 208h90l-46 -208h129q3 9 5 19q10 48 19.5 96.5t17.5 92.5h92l-46 -208h79zM235 440l-35 -158h129q9 40 18 79q8 38 17 79h-129z "/>
<glyph glyph-name="dollar" horiz-adv-x="529" unicode="$" d="M420 337q-28 18 -56 32t-60 27v-1q-2 1 -3 1v-98q18 -8 34 -16q24 -12 41 -26t27 -32t10 -39q0 -46 -34 -76q-27 -24 -78 -29v-87q26 3 53 11q42 12 76 34q34 24 56 60t21 86q0 48 -24 88t-63 65zM301 -7v-122h-78v122q23 -2 48 -2q15 0 30 2zM223 -7v90q-9 2 -17 4 q-32 7 -64 21t-62 32q-32 18 -63 39v-105q33 -23 63 -39t61 -26q29 -10 61 -14q10 -1 21 -2zM223 83v251l4 -2q4 -2 11 -5t12 -5l22 -9l12 -7q9 -4 17 -8v-218q-14 -1 -29 -1q-25 0 -49 4zM223 334v92q-9 2 -18 6q-21 8 -37 21q-16 12 -27 29q-10 17 -10 41q0 21 12 38 t30 29q19 12 41 18q5 1 9 3v91q-29 -3 -53 -11q-40 -13 -68 -36t-44 -56t-15 -72q0 -42 16 -72q16 -31 42 -53t59 -38q31 -16 63 -30zM223 702v111h78v-111q-22 2 -44 2q-18 0 -34 -2zM301 702v-90q33 -5 67 -16q58 -19 116 -55v104q-46 23 -104 41q-38 12 -79 16zM301 612 v-216q-12 6 -20 9q-9 3 -19 7v-1l-14 6q-13 4 -25 9v185q17 4 34 4q21 0 44 -3z"/>
<glyph glyph-name="percent" horiz-adv-x="701" unicode="%" d="M636 698l-223 -318q-66 -94 -131.5 -188.5t-132.5 -191.5h-95q75 109 151 216t149 212q46 66 95 135t94 135h93zM538 68q22 0 41 8t33.5 22t22.5 33t8 40t-8 39.5t-22.5 32.5t-33.5 22.5t-41 8.5q-21 0 -39.5 -8.5t-32.5 -22.5t-22 -32.5t-8 -39.5t8 -40t22 -33t32.5 -22 t39.5 -8zM538 342q35 0 66 -13.5t54.5 -37t37 -54.5t13.5 -66q0 -36 -13.5 -67t-37 -54.5t-54.5 -36.5t-66 -13t-66 13t-54 36.5t-36.5 54.5t-13.5 67q0 35 13.5 66t36.5 54.5t54 37t66 13.5zM49 527q0 -20 8 -38.5t22.5 -32.5t33 -22.5t39.5 -8.5t40 8.5t33.5 22.5 t22.5 32.5t8 38.5q0 22 -8 41t-22.5 33t-33.5 22.5t-40 8.5t-39.5 -8.5t-33 -22.5t-22.5 -33t-8 -41zM323 527q0 -35 -13.5 -66t-37 -54t-54.5 -36t-66 -13t-66 13t-54 36t-36 54t-13 66q0 36 13 67t36 54.5t54 37t66 13.5t66 -13.5t54.5 -37t37 -54.5t13.5 -67z"/>
<glyph glyph-name="ampersand" horiz-adv-x="654" unicode="&amp;" d="M270 90q19 8 48.5 27.5t60.5 48.5l-123 141q-6 -4 -13 -9.5t-12 -8.5q-23 -14 -42.5 -28t-34 -29t-22.5 -32t-8 -39q0 -23 9.5 -39t23.5 -26t30.5 -14t30.5 -4q26 0 52 12zM298 614q-9 0 -23.5 -3.5t-29 -12t-24.5 -24t-10 -39.5q0 -50 60 -121q48 32 79 64t31 60 q0 21 -9 35.5t-22 23.5t-27.5 13t-24.5 4zM637 0h-111l-91 103q-112 -108 -215 -108q-39 0 -72 13t-57 35.5t-38 52.5t-14 65q0 34 13 64t35 56t51 48.5t60 41.5q-32 39 -51.5 84.5t-19.5 79.5q0 38 14.5 68t38.5 51t54.5 32.5t63.5 11.5q35 0 65 -12.5t52.5 -34t35.5 -51 t13 -62.5q0 -28 -12 -54t-31 -49.5t-43 -44t-49 -38.5q12 -14 25.5 -30t22.5 -27l59 -69q31 38 45.5 62t25.5 47h-1l12 24h93q-24 -57 -54 -106t-64 -91z"/>
<glyph glyph-name="quotesingle" horiz-adv-x="190" unicode="&apos;" d="M63 787h60l14 -156h-90z"/>
<glyph glyph-name="parenleft" horiz-adv-x="248" unicode="(" d="M115 0q-23 50 -41 110q-15 51 -27.5 118.5t-12.5 145.5t11.5 142.5t25.5 113t27.5 78.5t18.5 39h91q-25 -54 -43 -115q-16 -53 -29 -119.5t-13 -138.5t10 -133t24 -109.5t28 -82t22 -49.5h-92z"/>
<glyph glyph-name="parenright" horiz-adv-x="250" unicode=")" d="M127 747q22 -50 40 -110q15 -51 28 -118.5t13 -144.5q0 -78 -11.5 -142.5t-26 -113t-28 -79t-17.5 -39.5h-91q24 53 42 115q16 53 29.5 120t13.5 139q0 71 -10.5 132.5t-24 109.5t-28 81.5t-21.5 49.5h92z"/>
<glyph glyph-name="asterisk" horiz-adv-x="415" unicode="*" d="M278 596l26 -17q17 -10 35.5 -23t33.5 -22l-47 -64l-72 55v-93h-77v93q-39 -28 -77 -55l-45 65l95 61q-23 15 -48 31.5t-48 30.5l26 37q5 8 10 15t10 15l73 -55v94h78v-94q19 13 38 28t37 27l47 -66z"/>
<glyph glyph-name="plus" horiz-adv-x="404" unicode="+" d="M153 217h-114v87h114v115h88v-115h116v-87h-116v-117h-88v117z"/>
<glyph glyph-name="comma" horiz-adv-x="112" unicode="," d="M22 74h93l-43 -74q-12 -20 -24 -40.5t-24 -41.5h-65z"/>
<glyph glyph-name="hyphen" horiz-adv-x="368" unicode="-" d="M327 299v-87h-289v87h289z"/>
<glyph glyph-name="period" horiz-adv-x="136" unicode="." d="M23 85h88v-85h-88v85z"/>
<glyph glyph-name="slash" horiz-adv-x="364" unicode="/" d="M333 735q-28 -98 -56.5 -195.5t-57.5 -193.5q-26 -88 -51.5 -178t-51.5 -179h-92l97 338q29 101 59 202.5t59 205.5h94z"/>
<glyph glyph-name="zero" horiz-adv-x="616" unicode="0" d="M303 85q43 0 78 20t60 55.5t38 83.5t13 105t-13 105t-38 83.5t-60 55.5t-78 20q-44 0 -78.5 -20t-59.5 -55.5t-38 -83.5t-13 -105t13 -105t38 -83.5t59.5 -55.5t78.5 -20zM303 701q64 0 115.5 -27t87.5 -74t55 -111.5t19 -139.5t-19 -139.5t-55 -111.5t-87.5 -74 t-115.5 -27t-115.5 27t-87.5 74t-55 111.5t-19 139.5t19 139.5t55 111.5t87.5 74t115.5 27z"/>
<glyph glyph-name="one" horiz-adv-x="196" unicode="1" d="M140 696v-696h-88v696h88z"/>
<glyph glyph-name="two" horiz-adv-x="485" unicode="2" d="M459 85v-85h-469q101 108 170.5 188t112.5 138.5t62 99.5t19 71q0 31 -9.5 54.5t-25.5 39.5t-35.5 24t-40.5 8q-44 0 -74 -31t-41 -91h-87q6 52 26.5 90t49 63.5t62.5 38t67 12.5q43 0 79 -15.5t61.5 -43t40 -64.5t14.5 -80q0 -44 -19.5 -92t-53.5 -99.5t-81 -108 t-101 -117.5h273z"/>
<glyph glyph-name="three" horiz-adv-x="460" unicode="3" d="M377 350q29 -30 44.5 -67.5t15.5 -79.5q0 -43 -16.5 -81t-45 -66.5t-66.5 -45t-80 -16.5q-40 0 -75.5 15t-63.5 41t-46.5 61.5t-24.5 76.5h87q11 -46 44.5 -77.5t78.5 -31.5q25 0 47.5 9.5t39.5 26.5t26.5 39.5t9.5 48.5q0 25 -9.5 47t-27 38.5t-41 26.5t-50.5 11v85 q24 1 44 9.5t34 22.5t22 33t8 40t-8.5 40t-22.5 33t-32.5 22.5t-39.5 8.5q-40 0 -69.5 -29.5t-36.5 -71.5h-84q3 39 19 73t42 59t59.5 39.5t69.5 14.5q39 0 73 -15t59.5 -40.5t40.5 -60t15 -73.5q0 -37 -18.5 -75.5t-47.5 -68.5q17 -12 20 -15l6 -6v-1z"/>
<glyph glyph-name="four" horiz-adv-x="509" unicode="4" d="M183 304h141v180zM407 1h-83v220h-307l390 505v-422h78v-83h-78v-220z"/>
<glyph glyph-name="five" horiz-adv-x="480" unicode="5" d="M380 395q32 -34 50 -77t18 -91t-19 -91t-51.5 -75t-75.5 -51t-91 -19q-52 0 -100 23t-88 68l38 32l28 22q26 -29 58 -44.5t64 -15.5q31 0 59 12t49 32.5t33 48t12 58.5q0 32 -12 60t-33 49t-49 33t-59 12q-24 0 -58.5 -12t-64.5 -38q-14 11 -18.5 15t-7.5 7h1l-23 22v321 h328v-84h-243v-161q16 5 38.5 10t47.5 5q48 0 90.5 -18.5t77.5 -51.5z"/>
<glyph glyph-name="six" horiz-adv-x="514" unicode="6" d="M255 80q32 0 60 12t49 32.5t33 48t12 59.5t-12 60t-33 49t-49 33t-60 12t-59.5 -12t-48 -32.5t-33 -48.5t-12.5 -61q0 -32 12 -59.5t33 -48t48.5 -32.5t59.5 -12zM424 401q34 -34 52 -77t18 -92q0 -48 -19 -91.5t-52 -75.5t-76.5 -51t-91.5 -19q-51 0 -95.5 20.5 t-77.5 56.5t-51.5 84t-18.5 103q0 59 16 118.5t45.5 116t70 109.5t89.5 99l60 -59q-18 -17 -39 -39.5t-42 -49.5t-40 -57.5t-33 -63.5q29 20 59.5 28.5t56.5 8.5q48 0 91.5 -17.5t77.5 -51.5z"/>
<glyph glyph-name="seven" horiz-adv-x="406" unicode="7" d="M105 -15l-78 35l256 592h-284v84h413z"/>
<glyph glyph-name="eight" horiz-adv-x="435" unicode="8" d="M213 78q25 0 47.5 9.5t39 26.5t26.5 40t10 49q0 25 -10 47.5t-26.5 39t-39 26t-47.5 9.5q-26 0 -49 -9.5t-40 -26t-26.5 -39t-9.5 -47.5q0 -26 9.5 -49t26.5 -40t40 -26.5t49 -9.5zM213 619q-21 0 -40 -8.5t-33 -22.5t-22 -32.5t-8 -39.5q0 -22 8 -41.5t22 -33.5 t33 -22.5t40 -8.5q22 0 41 8.5t33 22.5t22 33.5t8 41.5q0 21 -8 39.5t-22 32.5t-33 22.5t-41 8.5zM362 349q29 -30 44 -67t15 -79q0 -44 -16.5 -82t-45 -66.5t-66.5 -44.5t-80 -16q-44 0 -82 16t-66 44.5t-44.5 66.5t-16.5 82q0 48 21.5 91t63.5 78q-29 30 -47 68t-18 76 q0 39 15 73t40.5 59.5t60 40t73.5 14.5t73.5 -14.5t60 -40t40 -59.5t14.5 -73q0 -38 -18 -76.5t-47 -67.5l16 -14h-1l10 -8z"/>
<glyph glyph-name="nine" horiz-adv-x="525" unicode="9" d="M257 619q-32 0 -60 -12t-48.5 -32.5t-32.5 -48.5t-12 -59q0 -32 12 -60t32.5 -49t48.5 -33t60 -12t59.5 12t48.5 32.5t33 48.5t12 61q0 31 -12 59t-32.5 48.5t-48.5 32.5t-60 12zM89 298q-34 34 -52 77t-18 92q0 48 19 91.5t52 75.5t76 51t91 19q52 0 96.5 -20.5 t77.5 -56.5t51.5 -84t18.5 -103q0 -59 -16.5 -118.5t-45.5 -116t-70 -109.5t-89 -99l-60 59q18 17 39 39.5t42 49.5t40 57.5t33 63.5q-29 -20 -59.5 -28.5t-57.5 -8.5q-48 0 -91 17.5t-77 51.5z"/>
<glyph glyph-name="colon" horiz-adv-x="185" unicode=":" d="M52 85h89v-85h-89v85zM52 415v85h89v-85h-89z"/>
<glyph glyph-name="semicolon" horiz-adv-x="188" unicode=";" d="M53 500h88v-85h-88v85zM54 74h92q-11 -21 -24 -43.5t-23 -40.5q-11 -17 -21.5 -35t-20.5 -37h-65z"/>
<glyph glyph-name="less" horiz-adv-x="505" unicode="&lt;" d="M19 305l449 239v-99l-263 -140l121 -66q35 -20 71 -39.5t71 -37.5v-95z"/>
<glyph glyph-name="equal" horiz-adv-x="514" unicode="=" d="M467 430v-87h-427v87h427zM467 255v-88h-427v88h427z"/>
<glyph glyph-name="greater" horiz-adv-x="531" unicode="&gt;" d="M491 305l-448 -238v96l263 142l-117 63l-27 14l-119 63v99z"/>
<glyph glyph-name="question" horiz-adv-x="442" unicode="?" d="M152 85h88v-85h-88v85zM203 697q40 0 75 -14.5t61.5 -40t42 -61t15.5 -77.5q0 -35 -12 -64.5t-33.5 -53t-50 -42t-61.5 -30.5v-135h-88v194q33 5 61.5 18t49.5 31t33 39.5t12 42.5q0 12 -3.5 30t-14.5 35t-32 29t-55 12q-35 0 -63 -14.5t-50 -34.5l-54 69q75 67 167 67z "/>
<glyph glyph-name="at" horiz-adv-x="574" unicode="@" d="M286 202q11 17 18 36t7 41q0 24 -11.5 39.5t-31.5 15.5q-14 0 -26 -9.5t-21.5 -25t-15 -35t-5.5 -39.5q0 -23 10.5 -38.5t25.5 -15.5q29 0 50 31zM446 295q0 21 -9.5 43.5t-26.5 45.5q-11 -48 -21.5 -95.5t-20.5 -96.5q0 -5 -0.5 -8.5t-0.5 -8.5q12 5 25.5 16.5 t25.5 27.5t20 35.5t8 40.5zM448 145q-22 -18 -47 -30t-50 -12q-32 0 -45 10l-11 14q-20 -13 -36 -18t-30 -5q-47 0 -76.5 35.5t-29.5 88.5q0 36 12.5 67.5t33 55t46 37t51.5 13.5q15 0 31.5 -7t33.5 -18l5 18h64q-29 19 -58.5 30t-56.5 11q-41 0 -75.5 -15.5t-59.5 -42 t-39 -62.5t-14 -77t12.5 -73t37.5 -53q26 -24 62 -35t84 -11q29 0 54 5.5t48 14.5l-1 -1l29 18q8 5 16 12.5t17 20.5l-2 2q39 -1 79 -2q-42 -78 -104 -107.5t-137 -29.5q-64 0 -113 17.5t-82.5 48.5t-50.5 74t-17 94q0 64 21 114t57 84.5t83 52.5t98 18q48 0 89.5 -15.5 t72 -43.5t47.5 -66.5t17 -83.5q0 -38 -20 -79q-18 -37 -45 -70zM454 138q-3 3 -5 6l-6 -6h11z"/>
<glyph glyph-name="A" horiz-adv-x="630" unicode="A" d="M436 226q-32 77 -61.5 146.5t-61.5 147.5q-14 -35 -29 -68t-29 -67q-17 -37 -34.5 -77.5t-33.5 -81.5h249zM629 1h-96l-61 137h-322l-60 -137h-95q18 42 37 85t36 85q61 142 122.5 286.5t122.5 289.5z"/>
<glyph glyph-name="B" horiz-adv-x="447" unicode="B" d="M226 87q27 0 48.5 11t36.5 28t23 38.5t8 42.5q0 26 -10 49.5t-27 41t-38.5 28t-43.5 10.5h-120v-249h123zM103 614v-195h105q12 0 27.5 6.5t30 19t24 31t9.5 42.5q0 18 -7 35.5t-19.5 31t-30.5 21.5t-39 8h-100zM202 699q42 0 75.5 -16.5t57 -42.5t36 -57.5t12.5 -62.5 t-10 -55t-22 -41q-14 -20 -32 -36q7 -3 25 -15t37.5 -34.5t34.5 -55.5t15 -77q0 -50 -18.5 -88.5t-48 -64.5t-66 -39.5t-72.5 -13.5h-210v699h186z"/>
<glyph glyph-name="C" horiz-adv-x="639" unicode="C" d="M366 89q50 0 98 17.5t91 59.5l59 -60q-57 -54 -120 -80.5t-128 -26.5q-72 0 -135 27.5t-110.5 75.5t-75 113.5t-27.5 140.5q0 72 27.5 135.5t75 110.5t110.5 74.5t135 27.5q65 0 128 -25.5t120 -73.5l-59 -59q-42 32 -91.5 50t-97.5 18q-57 0 -105.5 -20t-84 -55 t-55.5 -82t-20 -101q0 -57 20 -106t55.5 -85t84 -56t105.5 -20z"/>
<glyph glyph-name="D" horiz-adv-x="621" unicode="D" d="M208 84q66 0 119.5 18.5t91 52.5t58 82t20.5 108q0 63 -19 113t-54.5 85.5t-87.5 54t-118 18.5h-109v-532h99zM218 700q33 0 74 -5t82.5 -19t81 -38.5t70 -64t49 -95.5t18.5 -133q0 -81 -22.5 -138.5t-58 -96t-79.5 -60.5t-87 -33t-80 -14t-58 -3h-190v700h200z"/>
<glyph glyph-name="E" horiz-adv-x="418" unicode="E" d="M111 613v-216h237v-82h-237v-227h286v-88h-375v701h375v-88h-286z"/>
<glyph glyph-name="F" horiz-adv-x="422" unicode="F" d="M110 613v-216h237v-82h-237v-315h-89v701h375v-88h-286z"/>
<glyph glyph-name="G" horiz-adv-x="645" unicode="G" d="M329 360h292v-264q-54 -48 -117 -73.5t-128 -25.5q-75 0 -140.5 27.5t-114 75t-76.5 111t-28 135.5t28 137.5t76.5 114.5t114 78t140.5 29q64 0 127.5 -27.5t120.5 -81.5l-58 -58q-42 42 -91.5 61.5t-98.5 19.5q-57 0 -107 -21.5t-86.5 -58.5t-57.5 -86.5t-21 -106.5 q0 -54 21 -101.5t57.5 -83t86.5 -56.5t107 -21q41 0 79 11.5t79 37.5v148h-205v79z"/>
<glyph glyph-name="H" d="M499 700v-700h-89v315h-306v-315h-88v700h88v-301h306v301h89z" unicode="H"/>
<glyph glyph-name="I" horiz-adv-x="152" unicode="I" d="M117 700v-700h-89v700h89z"/>
<glyph glyph-name="J" horiz-adv-x="280" unicode="J" d="M124 -9q-35 0 -65.5 22.5t-48.5 51.5l69 45q14 -18 27.5 -25t25.5 -7q13 1 21.5 11.5t13 25.5t6 32t1.5 31v522h88v-522q0 -95 -31.5 -141t-106.5 -46z"/>
<glyph glyph-name="K" horiz-adv-x="607" unicode="K" d="M601 0h-119l-367 350v-350h-89v700h89v-328l310 328h119l-321 -331z"/>
<glyph glyph-name="L" horiz-adv-x="491" unicode="L" d="M455 88v-88h-423v700h88v-612h335z"/>
<glyph glyph-name="M" horiz-adv-x="659" unicode="M" d="M24 0v730l303 -314q51 51 101 102.5t101 104.5q23 26 51.5 55t51.5 53v-731h-88v511l-216 -222l-216 223v-512h-88z"/>
<glyph glyph-name="N" horiz-adv-x="610" unicode="N" d="M570 -43l-446 554v-511h-82v747l447 -548v501h81v-743z"/>
<glyph glyph-name="O" horiz-adv-x="697" unicode="O" d="M347 615q-56 0 -104.5 -20t-84 -55.5t-55.5 -84t-20 -105.5q0 -53 20 -101t55.5 -84t84 -57.5t104.5 -21.5q53 0 101 21.5t84 57.5t57.5 84t21.5 101q0 57 -21.5 105.5t-58 84t-84.5 55.5t-100 20zM347 -3q-75 0 -140 28.5t-112 76.5t-74 112t-27 136q0 75 27 140 t74 112.5t112 74.5t140 27q72 0 136 -27t112.5 -74.5t77 -112.5t28.5 -140q0 -72 -28.5 -136t-77 -112t-112.5 -76.5t-136 -28.5z"/>
<glyph glyph-name="P" horiz-adv-x="402" unicode="P" d="M215 390q25 0 45.5 10t34 25.5t21 35t7.5 37.5q0 31 -11.5 52.5t-28.5 35t-35.5 19.5t-32.5 6h-108v-221h108zM107 300v-300h-84v700h190q37 0 73.5 -14t65 -40.5t46 -64t17.5 -83.5q0 -29 -12 -63.5t-37 -64.5t-62 -50t-88 -20h-109z"/>
<glyph glyph-name="Q" horiz-adv-x="710" unicode="Q" d="M694 61l-65 -65l-70 71q-33 -23 -71 -41q-64 -28 -136 -28q-75 0 -139 28.5t-111.5 76.5t-74.5 112t-27 136q0 75 27 140t74.5 112.5t111.5 74.5t139 27q72 0 136.5 -27t112.5 -74.5t76.5 -112.5t28.5 -140q0 -72 -28 -136q-21 -47 -53 -86zM352 616q-56 0 -104 -20 t-83.5 -55t-55.5 -84t-20 -106q0 -53 20 -101t55.5 -84t83.5 -57.5t104 -21.5q54 -1 102 21q22 10 41 23l-64 64l62 65l69 -68q20 26 34 58q22 48 22 101q0 57 -22 106t-59 84t-85 55t-100 20z"/>
<glyph glyph-name="R" horiz-adv-x="489" unicode="R" d="M216 390q25 0 45 10t33.5 25.5t21 35t7.5 37.5q0 31 -11.5 52.5t-28.5 35t-35.5 19.5t-31.5 6h-109v-221h109zM408 0l-194 300h-107v-300h-83v700h189q37 0 73.5 -14t65 -40.5t46 -64t17.5 -83.5q0 -58 -29 -104t-80 -72l208 -322h-106z"/>
<glyph glyph-name="S" horiz-adv-x="505" unicode="S" d="M252 -6q-55 0 -101 13.5t-77 27.5q-23 10 -42 21.5t-29 17.5l37 71l41 -22v1q32 -15 78 -30t94 -15q34 0 62 8.5t47 21.5q32 30 32 79q0 46 -47 78q-21 15 -49.5 28.5t-61.5 26.5q-38 17 -74.5 34.5t-67.5 41.5q-69 57 -69 134q0 41 17 71h-1q17 32 46 57q60 48 154 48 q47 1 88 -9q40 -10 67 -20q22 -6 38 -13l-41 -76q-29 11 -69 21.5t-83 10.5q-14 0 -39 -3.5t-47 -17.5q-42 -23 -42 -74q0 -18 12 -32.5t32 -28t46 -26t54 -24.5q38 -17 79.5 -36t75.5 -47q77 -60 77 -146q0 -44 -21 -81.5t-57 -63.5q-32 -20 -74 -33t-85 -14z"/>
<glyph glyph-name="T" horiz-adv-x="409" unicode="T" d="M423 700v-83h-179v-617h-83v617h-178v83h440z"/>
<glyph glyph-name="U" horiz-adv-x="549" unicode="U" d="M521 700v-451q0 -52 -19 -98t-53 -80.5t-79.5 -55t-97.5 -20.5t-97.5 20t-79 54.5t-52.5 80.5t-19 99v451h88v-451q0 -38 13 -70t34.5 -56t50.5 -37.5t62 -13.5t62.5 13.5t51 37.5t34.5 56t13 70v451h88z"/>
<glyph glyph-name="V" horiz-adv-x="768" unicode="V" d="M750 700l-369 -721l-201 391q-42 80 -85 163.5t-85 166.5h99l272 -528l162 317l108 211h99z"/>
<glyph glyph-name="W" horiz-adv-x="902" unicode="W" d="M898 700l-305 -724l-147 334l-47 -108q-24 -54 -50 -114.5t-49 -111.5l-306 724h95l212 -490q12 26 25.5 57t24.5 57l5 10l42 94q-17 42 -34 82t-34 82l-45 108h98l63 -157q16 38 33 79t32 78h96l-113 -273q26 -57 49 -108.5t49 -108.5l108 251l103 239h95z"/>
<glyph glyph-name="X" horiz-adv-x="672" unicode="X" d="M390 362q68 -89 137 -181.5t137 -180.5h-111l-219 290l-220 -290h-109l273 362q-25 34 -51.5 69.5t-55.5 72.5l-75 98l-73 98h110l201 -265l98 129l104 136h109z"/>
<glyph glyph-name="Y" horiz-adv-x="611" unicode="Y" d="M355 359l-9 -11v-348h-89v347l-49 66q-33 45 -67.5 89.5t-68.5 90.5l-81 107h110l202 -265l92 122l25 35l83 108h110z"/>
<glyph glyph-name="Z" horiz-adv-x="578" unicode="Z" d="M174 88h382v-88h-545l392 612h-373v88h534z"/>
<glyph glyph-name="bracketleft" horiz-adv-x="230" unicode="[" d="M111 610v-769h81v-86h-168v941h168v-86h-81z"/>
<glyph glyph-name="backslash" horiz-adv-x="373" unicode="\" d="M239 -11l-215 746h92l217 -746h-94z"/>
<glyph glyph-name="bracketright" horiz-adv-x="228" unicode="]" d="M24 610v86h168v-941h-168v86h82v769h-82z"/>
<glyph glyph-name="asciicircum" horiz-adv-x="552" unicode="^" d="M508 367h-99l-141 243l-68 -118q-20 -32 -38.5 -64t-35.5 -61h-98l240 408z"/>
<glyph glyph-name="underscore" horiz-adv-x="545" unicode="_" d="M485 -40v-87h-445v87h445z"/>
<glyph glyph-name="grave" horiz-adv-x="248" unicode="`" d="M45 892h66l88 -156h-91z"/>
<glyph glyph-name="a" horiz-adv-x="493" unicode="a" d="M192 75q49 0 81 17.5t50.5 41.5t25.5 49.5t7 42.5v18q-18 3 -42 5.5t-46 2.5q-29 0 -59 -5t-55 -16.5t-41 -31t-16 -49.5q0 -9 3 -22t13 -25t29 -20t50 -8zM447 97q6 -12 18 -16.5t12 -2.5q0 -5 -1 -17.5t-2 -26.5q-1 -16 -2 -34q-48 0 -74 19t-34 61q-9 -14 -23.5 -28.5 t-35.5 -26.5t-49 -19.5t-64 -7.5t-69 8t-59 25t-41.5 44.5t-15.5 65.5q0 52 22 88.5t57.5 59t79 32.5t86.5 10q50 0 103 -10q-2 27 -12 46t-26 31t-35.5 17.5t-40.5 5.5q-36 0 -75 -17.5t-74 -52.5q-6 9 -13 17.5t-12 15.5q-5 8 -12 17t-12 19q48 41 100 61t101 20 q55 0 93.5 -14.5t62.5 -40t34.5 -61t10.5 -78.5q0 -32 -2.5 -64.5t-2.5 -69.5q0 -28 1.5 -48.5t5.5 -29.5v2z"/>
<glyph glyph-name="b" horiz-adv-x="534" unicode="b" d="M272 75q38 0 65.5 17t45.5 42.5t26.5 56.5t8.5 60q0 27 -9.5 56t-27.5 53t-45.5 39.5t-63.5 15.5q-32 0 -62 -10.5t-53 -31t-37 -51.5t-14 -72q0 -44 14.5 -77t38 -54.5t53 -32.5t60.5 -11zM272 499q54 0 97 -20.5t74 -55t47.5 -80t16.5 -94.5q0 -51 -16.5 -97.5 t-47.5 -82t-74 -56.5t-97 -21q-35 0 -65 12.5t-53 28.5q-26 18 -48 42v-76h-90v746h90v-319q6 9 18.5 21.5t32.5 24t48.5 19.5t66.5 8z"/>
<glyph glyph-name="c" horiz-adv-x="461" unicode="c" d="M268 78q32 0 60.5 12.5t60.5 34.5l60 -61q-47 -39 -89.5 -53.5t-91.5 -14.5q-55 0 -102 19.5t-81.5 53t-54 79t-19.5 97.5q0 55 19.5 102.5t54 82.5t81.5 54.5t102 19.5q48 0 92 -16t89 -52l-60 -61q-29 20 -59 33.5t-62 13.5q-35 0 -67 -14t-56 -38.5t-38 -56.5t-14 -68 q0 -33 14 -63t38 -53t56 -37t67 -14z"/>
<glyph glyph-name="d" horiz-adv-x="558" unicode="d" d="M252 75q31 0 60.5 11t53 32.5t38 54.5t14.5 77q0 41 -14 72t-37 51.5t-53 31t-62 10.5q-36 0 -63.5 -15.5t-45.5 -39.5t-27.5 -53t-9.5 -56q0 -29 8.5 -60t26.5 -56.5t45.5 -42.5t65.5 -17zM252 499q37 0 67.5 -11.5t52.5 -25.5q26 -16 46 -36v319h89v-746h-89v76 q-7 -10 -20 -24t-33.5 -27t-48.5 -22.5t-64 -9.5q-54 0 -97.5 21t-74.5 56.5t-47.5 82t-16.5 97.5q0 49 16.5 94.5t47.5 80t74.5 55t97.5 20.5z"/>
<glyph glyph-name="e" horiz-adv-x="511" unicode="e" d="M252 421q-32 0 -57.5 -10.5t-44.5 -27.5t-30.5 -39t-14.5 -45h289q-6 25 -19 47.5t-31.5 39t-41.5 26t-50 9.5zM458 97q-40 -48 -91 -75t-114 -27q-59 0 -103.5 19t-74.5 52.5t-45 79.5t-15 100q0 51 15 97t45 81t74.5 55.5t103.5 20.5q54 0 98 -21t74.5 -58t47.5 -88 t17 -110h-388q1 -33 11 -60.5t29 -47.5t47 -31.5t64 -11.5q35 0 63 12.5t47 28.5q22 18 39 41z"/>
<glyph glyph-name="f" horiz-adv-x="270" unicode="f" d="M69 0v412h-58v89h58v61q0 161 138 161q35 0 64 -23t49 -52l-69 -42q-15 16 -26 22.5t-25 6.5q-14 -2 -22.5 -9t-13 -17.5t-5.5 -22.5t-1 -24v-61h94v-89h-94v-412h-89z"/>
<glyph glyph-name="g" horiz-adv-x="469" unicode="g" d="M210 -170q25 0 47.5 4.5t39 14.5t26 24.5t9.5 34.5q0 19 -9.5 34.5t-26 26.5t-39 16.5t-47.5 5.5q-23 0 -44 -5.5t-37 -16.5t-26 -26.5t-10 -34.5q0 -20 10 -34.5t26 -24.5t37 -14.5t44 -4.5zM219 422q-23 0 -42 -8.5t-32.5 -22.5t-21 -32.5t-7.5 -38.5q0 -19 7.5 -37 t21 -32t32.5 -22.5t42 -8.5q19 0 37 7.5t32 21t22.5 32t8.5 39.5q0 20 -8.5 38.5t-22 32.5t-32 22.5t-37.5 8.5zM283 56q72 -19 109 -53t37 -95q0 -37 -17 -66t-46.5 -48.5t-69.5 -30t-86 -10.5q-42 0 -80.5 10.5t-68 30t-46.5 48.5t-17 66q0 48 26 80t71 53 q-22 16 -37 34.5t-15 40.5q0 20 14.5 37.5t34.5 31.5q-23 29 -41.5 65t-18.5 70q0 37 14 70t39 57.5t59 38.5t75 14h210v-77h-69q36 -55 36 -103t-20 -89t-59 -64q-29 -17 -61 -22.5t-59 -8.5h-4t-4 -1q-2 0 -2.5 -0.5t-1.5 -0.5q-25 -2 -42.5 -6t-17.5 -14 q0 -16 38.5 -27.5t100.5 -25.5z"/>
<glyph glyph-name="h" horiz-adv-x="482" unicode="h" d="M117 0h-88v745h88l1 -314q6 8 17.5 20t27.5 23t36.5 18.5t46.5 7.5q54 0 92.5 -20.5t63 -55t36 -80t11.5 -94.5v-250h-89v252q0 27 -4.5 56t-16.5 53t-34.5 39.5t-58.5 15.5q-32 0 -56 -13t-40.5 -35.5t-24.5 -52t-8 -62.5v-253z"/>
<glyph glyph-name="i" horiz-adv-x="187" unicode="i" d="M135 654v-85h-88v85h88zM47 501h88v-500h-88v500z"/>
<glyph glyph-name="j" horiz-adv-x="185" unicode="j" d="M149 500v-522q0 -28 -4.5 -60.5t-19 -60.5t-42.5 -47t-75 -19q-18 0 -35.5 6.5t-33.5 17t-29.5 23.5t-23.5 27l32 22l37 27q18 -22 30.5 -27.5t22.5 -5.5q26 0 38 27.5t12 69.5v522h91zM148 567h-89v85h89v-85z"/>
<glyph glyph-name="k" horiz-adv-x="435" unicode="k" d="M496 -1h-128l-263 264v-263h-88v745h88v-460l213 213h127l-224 -224z"/>
<glyph glyph-name="l" horiz-adv-x="214" unicode="l" d="M123 159q0 -10 3.5 -20.5t11 -20t20.5 -16.5t32 -8v-88q-42 2 -72 16.5t-48.5 36t-27.5 48t-9 52.5v593h90v-593z"/>
<glyph glyph-name="m" horiz-adv-x="806" unicode="m" d="M575 509q54 0 92.5 -20.5t63 -55t35.5 -80t11 -94.5v-259h-89v261q0 27 -4.5 56t-16.5 52.5t-34 39t-58 15.5q-30 0 -53.5 -12t-40 -32.5t-25.5 -48.5t-10 -59v-17.5v-48v-83.5v-123h-90v261q0 27 -4.5 56t-17 52.5t-34.5 39t-58 15.5q-32 0 -56 -13t-40.5 -35t-25 -51.5 t-8.5 -62.5v-262h-88v500h88l1 -61q6 9 17.5 21t28 23t37.5 18.5t46 7.5q46 0 79.5 -18t55.5 -39q26 -26 43 -57q5 11 16.5 30.5t30.5 38t45.5 32t62.5 13.5z"/>
<glyph glyph-name="n" horiz-adv-x="490" unicode="n" d="M120 0h-88v500h88l1 -60q6 9 17.5 21t27 22.5t36.5 18t47 7.5q54 0 92.5 -20.5t63 -55t36 -80t11.5 -94.5v-259h-89v261q0 27 -4.5 56t-17 52.5t-34.5 39t-58 15.5q-32 0 -56 -13t-40.5 -35t-24.5 -51.5t-8 -62.5v-262z"/>
<glyph glyph-name="o" horiz-adv-x="516" unicode="o" d="M252 419q-37 0 -67.5 -14t-53 -37.5t-35 -54t-12.5 -64.5q0 -36 12.5 -67t35 -53.5t53 -35t67.5 -12.5t68 12.5t53.5 35t35 53.5t12.5 67q0 34 -12.5 64.5t-34.5 54t-53.5 37.5t-68.5 14zM252 -4q-51 0 -97 19t-80.5 53t-55 80.5t-20.5 100.5q0 51 20.5 97.5t55 81.5 t80.5 55.5t97 20.5t97.5 -20.5t81.5 -55.5t55.5 -81.5t20.5 -97.5q0 -54 -20.5 -100.5t-55.5 -80.5t-81.5 -53t-97.5 -19z"/>
<glyph glyph-name="p" horiz-adv-x="551" unicode="p" d="M285 425q-31 0 -61 -11t-53.5 -33t-38 -55t-14.5 -77q0 -41 14 -72t37.5 -51.5t53.5 -31t62 -10.5q36 0 63.5 15.5t45.5 39.5t27.5 53t9.5 56q0 28 -8.5 59.5t-26.5 57.5t-45.5 43t-65.5 17zM285 0q-38 0 -68.5 11t-52.5 25q-26 16 -46 37v-319h-89v746h89v-77 q7 10 20.5 24t34 27.5t48.5 23t64 9.5q54 0 97 -21t74 -56.5t47.5 -82t16.5 -97.5q0 -49 -16.5 -94.5t-47.5 -80t-74 -55t-97 -20.5z"/>
<glyph glyph-name="q" horiz-adv-x="543" unicode="q" d="M252 425q-38 0 -65.5 -17t-45.5 -43t-26.5 -57.5t-8.5 -59.5q0 -27 9.5 -56t27.5 -53t45.5 -39.5t63.5 -15.5q32 0 62 10.5t53 31t37 51.5t14 72q0 44 -14.5 77t-38 55t-53 33t-60.5 11zM252 0q-54 0 -97.5 20.5t-74.5 55t-47.5 80t-16.5 94.5q0 51 16.5 97.5t47.5 82 t74.5 56.5t97.5 21q35 0 65 -13t53 -29q26 -18 48 -42v77h89v-746h-89v319q-6 -9 -18.5 -21.5t-32.5 -24t-48.5 -19.5t-66.5 -8z"/>
<glyph glyph-name="r" horiz-adv-x="339" unicode="r" d="M242 509q39 0 71 -12t61 -35l-48 -80q-17 18 -38.5 30t-45.5 12q-32 0 -56 -13t-40.5 -35t-25 -51.5t-8.5 -62.5v-262h-88v500h88l1 -56q9 13 24 25t32 21t36 14t37 5z"/>
<glyph glyph-name="s" horiz-adv-x="380" unicode="s" d="M103 370q0 -12 8.5 -23t22.5 -20.5t33 -19t39 -18.5q27 -12 55.5 -26.5t51.5 -32.5t37.5 -42t14.5 -55q0 -61 -47 -100t-130 -39q-42 0 -76.5 9t-59.5 20.5t-38 21t-13 10.5l35 67q12 -6 30 -14t38.5 -14.5t42 -11.5t41.5 -5q35 0 57 14t22 42q0 24 -27 39.5t-65 32.5 l-13 7v-1q-26 12 -51.5 25t-46.5 31.5t-34 44t-13 62.5q0 59 42.5 95.5t119.5 36.5q33 0 60 -6.5t47 -14.5q23 -9 42 -20l-37 -70q-18 9 -49 19.5t-63 10.5q-35 0 -55.5 -16t-20.5 -39z"/>
<glyph glyph-name="t" horiz-adv-x="339" unicode="t" d="M203 -5q-137 0 -137 162v255h-48v88h48v100h89v-100h131v-88h-131v-255q0 -12 1.5 -25t6 -24t13.5 -18t24 -7q13 0 24 7t26 26l67 -47q-19 -29 -48 -51.5t-66 -22.5z"/>
<glyph glyph-name="u" horiz-adv-x="493" unicode="u" d="M351 500h90v-500h-90l-1 60q-5 -8 -15.5 -19t-26 -21.5t-37 -18t-49.5 -7.5q-54 0 -92.5 20t-63 54t-36 79t-11.5 94v259h90v-261q0 -27 4.5 -56t17 -53t34.5 -39t57 -15q32 0 56.5 13t40.5 35t24 51.5t8 62.5v262z"/>
<glyph glyph-name="v" horiz-adv-x="540" unicode="v" d="M541 500q-29 -58 -60.5 -117t-60.5 -115l-152 -295q-60 114 -116.5 224.5t-113.5 222.5l-42 80h97l174 -332q9 17 21 39.5t20 36.5q20 42 43 84.5t45 84.5l46 87h99z"/>
<glyph glyph-name="w" horiz-adv-x="759" unicode="w" d="M739 500l-187 -535l-174 345l-173 -345l-188 535h90l111 -322q39 78 80.5 158t79.5 158l160 -317l112 323h89z"/>
<glyph glyph-name="x" horiz-adv-x="511" unicode="x" d="M308 279l215 -279h-112l-159 205l-48 -62l-110 -143h-112l216 279q-14 17 -26 33.5t-25 32.5l-119 155h113l111 -146l113 146h111z"/>
<glyph glyph-name="y" horiz-adv-x="525" unicode="y" d="M510 500l-403 -746h-102l205 378l-222 368h105l167 -276q8 12 17 30q11 20 21 40.5t20 36.5v-1q22 38 43.5 80.5t41.5 80.5l5 9h102z"/>
<glyph glyph-name="z" horiz-adv-x="456" unicode="z" d="M176 92h227v-89h-392l261 408h-223v89h386z"/>
<glyph glyph-name="braceleft" horiz-adv-x="299" unicode="{" d="M192 85l8 -6l3 9l4 -4q6 -4 23 -3h27v-82h-35q-33 0 -55 9t-36 26q-7 10 -11 20t-8 22q-3 14 -4 36t-1 58q0 39 -1 69q-2 30 -6 50t-14 30t-28 10h-16v86h16q18 0 28 9q10 8 14 28q5 20 6 50t1 73q1 50 5 83q4 32 16 52t36 28q22 8 58 7h35v-81h-27q-14 0 -21 -4t-9 -5 q-2 -5 -4 -15t-1 -24v-47q1 -59 -7 -107t-25 -73l-4 -4v1q-3 -4 -5 -6l-7 -7q9 -9 18 -22t14 -21q3 -8 6 -26t5 -42q2 -22 4 -46q1 -24 1 -41v-45q0 -26 5 -38l2 -4q-2 0 -2 3zM203 88v0h-1h1z"/>
<glyph glyph-name="bar" horiz-adv-x="172" unicode="|" d="M126 696v-941h-78v941h78z"/>
<glyph glyph-name="braceright" horiz-adv-x="299" unicode="}" d="M134 392q-17 24 -24 71t-7 106v47q0 16 -1 25t-3 14q-1 1 -9 5t-22 4h-26v81h34q36 1 58 -7t36 -28t18 -52q4 -33 4 -83q0 -43 1 -73t5 -50t15 -28q10 -9 28 -9h16v-86h-16q-18 0 -28 -10q-11 -10 -15 -30t-5 -50t-1 -69q0 -36 -1 -58t-4 -36t-8 -23t-12 -19 q-13 -17 -35 -26t-56 -9h-34v82h26q17 0 22 2q13 15 13 47v45q0 17 1 41q2 24 4 47t5 43t7 27q4 8 14 20t17 20l-9 9t-7 9h-1v1zM95 88v-10q1 0 3 1l2 1l-2 9q-1 -1 -3 -1z"/>
<glyph glyph-name="asciitilde" horiz-adv-x="453" unicode="~" d="M404 370q0 -1 0.5 -2.5t0.5 -2.5q1 -3 1 -8v-10q0 -54 -31.5 -84t-76.5 -30q-29 0 -48.5 9t-37.5 22h1l-7 5q-5 3 -16.5 7.5t-35.5 14.5q-4 2 -10 2q-16 0 -22 -20t-7 -42h-73q-1 7 -1 13v13q0 21 6 42t19 38t34 27.5t50 10.5q19 0 39.5 -9.5t41.5 -22.5q18 -12 36 -20.5 t34 -8.5q3 0 7 1.5t11 8.5q2 2 6.5 11t5.5 40h67z"/>
<glyph glyph-name="exclamdown" horiz-adv-x="190" unicode="¡" d="M56 375v67h71v-67h-71zM68 298h48q2 -32 4 -67t5 -67l10 -130v-280h-88v280l8 101z"/>
<glyph glyph-name="cent" horiz-adv-x="480" unicode="¢" d="M306 83v-85q28 2 54 12q42 14 89 54l-60 61q-33 -23 -61 -35q-10 -4 -22 -7zM306 83q-18 -5 -38 -5t-39 5v334q19 5 39 5q19 0 38 -5v-334zM306 -2v-76h-77v77q19 -3 39 -3t38 2zM229 -1v84q-14 3 -28 9q-32 14 -56 37t-38 53t-14 63q0 36 14 68q14 33 38 57t56 38 q14 6 28 9v84q-33 -5 -63 -17q-48 -20 -82 -54t-54 -82t-19 -103q-1 -51 19 -97t54 -80t82 -52q30 -12 63 -17zM229 501v68h77v-68q-19 3 -38 3q-20 0 -39 -3zM306 501v-84q12 -3 24 -9q30 -14 59 -33l60 61q-45 36 -89 52q-26 9 -54 13z"/>
<glyph glyph-name="sterling" horiz-adv-x="460" unicode="£" d="M180 290q-11 -63 -24.5 -114.5t-27.5 -91.5h300v-84h-431l26 59q0 2 1 3q4 10 12.5 31.5t19 51.5t20.5 67t18 78h-44v85h53q1 9 1 21v21v18q0 26 1 52t5 49q10 44 31.5 75t47.5 50.5t52.5 28t45.5 8.5q43 0 81 -19t63 -45q-14 -10 -22.5 -17.5t-16.5 -14.5l-26 -24 q-14 15 -33.5 25.5t-41.5 10.5q-17 0 -35 -10t-32 -22q-18 -29 -26 -68.5t-9 -83.5v-15v-19t-1 -21h137v-85h-145z"/>
<glyph glyph-name="currency" horiz-adv-x="507" unicode="¤" d="M124 494q0 -26 10 -49.5t28 -41.5t41.5 -28.5t50.5 -10.5t50.5 10.5t41.5 28.5t28.5 41.5t10.5 49.5q0 27 -10.5 51t-28.5 42t-41.5 28t-50.5 10t-50.5 -10t-41.5 -28t-28 -42t-10 -51zM458 494q0 -28 -8 -57t-23 -55l32 -33l-58 -62l-35 36q-54 -32 -112 -32 q-27 0 -56 8t-56 25q-8 -7 -18.5 -18.5t-17.5 -17.5q-10 10 -17.5 18.5t-15.5 16.5v-1l-25 26l36 35q-34 53 -34 111q0 55 34 112l-10.5 10.5t-9.5 8.5l-17 16q9 9 18 18.5t17 16.5l23 25l37 -35q54 33 112 33q29 0 57.5 -7.5t54.5 -24.5l16 14q3 2 9 8l11 11 q11 -11 22 -21.5t19 -19.5l16 -19l-33 -33q17 -28 24.5 -56.5t7.5 -56.5z"/>
<glyph glyph-name="yen" horiz-adv-x="643" unicode="¥" d="M533 401v-87h-172v-60h172v-88h-172v-166h-87v166h-170v88h170v60h-170v87h128l-14 18q-30 40 -58 76l-152 201h109l201 -264q30 41 65.5 89t67.5 90l65 85h111l-223 -295h129z"/>
<glyph glyph-name="brokenbar" horiz-adv-x="214" unicode="¦" d="M149 696v-402h-77v402h77zM72 156h77v-401h-77v401z"/>
<glyph glyph-name="section" d="M260 177q21 0 40 8t32.5 22t21.5 32t8 39q0 43 -29.5 72t-72.5 29q-21 0 -39 -8t-32 -21.5t-22 -32t-8 -39.5t8 -39t22 -32t32 -22t39 -8zM381 116l14 -8l1 1q38 -26 58.5 -61.5t20.5 -77.5q0 -46 -20 -79.5t-51.5 -56t-70 -33.5t-76.5 -11q-63 0 -113 23.5t-85 50.5v92 q52 -38 102 -60.5t96 -22.5q67 0 99 26t32 71q0 21 -9.5 36.5t-26.5 28.5t-41 24.5t-54 24.5q-44 21 -77.5 40t-55.5 41t-33 49t-11 64q0 42 22 82t57 69q-53 31 -82 67.5t-29 87.5q0 36 14.5 65.5t40.5 51t62.5 33t80.5 11.5q26 0 47.5 -2.5t42 -8t40.5 -13.5t42 -18v-96 q-53 33 -93.5 44.5t-78.5 11.5q-19 0 -39.5 -6t-37 -17t-27.5 -26t-11 -34q0 -22 15.5 -40t40.5 -33t56.5 -28t64.5 -26q59 -26 96.5 -70.5t37.5 -104.5q0 -42 -23 -81.5t-56 -67.5q4 -3 8.5 -5.5t10.5 -5.5v-1h-1v-1z" unicode="§"/>
<glyph glyph-name="dieresis" horiz-adv-x="382" unicode="¨" d="M62 827h88v-85h-88v85zM240 827h88v-85h-88v85z"/>
<glyph glyph-name="copyright" horiz-adv-x="732" unicode="©" d="M362 56q61 0 114.5 23t93.5 62.5t63 92.5t23 113q0 61 -23 114t-63 92.5t-93.5 62.5t-114.5 23q-60 0 -112.5 -23t-92.5 -62.5t-63 -92.5t-23 -114q0 -60 23 -113t63 -92.5t92.5 -62.5t112.5 -23zM362 696q67 0 130 -25.5t111.5 -71t78 -110t29.5 -142.5 q0 -71 -27.5 -134t-74.5 -110.5t-111 -75.5t-136 -28q-69 0 -132 26.5t-111 73t-76.5 110.5t-28.5 138q0 68 26 131t72 111.5t110 77.5t140 29zM362 510q-35 0 -64.5 -12.5t-51.5 -34.5t-34 -51.5t-12 -62.5q0 -35 12 -65t34 -52t51.5 -34.5t64.5 -12.5q32 0 62 11.5 t57 37.5l44 -41q-37 -32 -80.5 -50.5t-82.5 -18.5q-45 0 -84.5 17.5t-69.5 48t-47 71.5t-17 88q0 46 17 87t47 71t69.5 47.5t84.5 17.5q39 0 82 -16.5t82 -48.5l-45 -39q-56 42 -119 42z"/>
<glyph glyph-name="ordfeminine" horiz-adv-x="230" unicode="ª" d="M108.754 530.183q19.0781 0 31.5371 6.80957q12.459 6.80859 19.6611 16.1475q7.20312 9.33789 9.92871 19.2598t2.72559 16.5371v7.00391q-7.00879 1.16699 -16.3525 2.13965q-9.34473 0.972656 -17.9102 0.972656q-11.291 0 -22.9707 -1.94531 q-11.6807 -1.94531 -21.4141 -6.41992t-15.9629 -12.0625q-6.22949 -7.58691 -6.22949 -19.2598q0 -3.50195 1.16797 -8.56055t5.06152 -9.72754t11.291 -7.78223q7.39746 -3.1123 19.4668 -3.1123zM208.036 538.742q2.33594 -4.66895 7.00879 -6.41992 q4.67188 -1.75098 4.67188 -0.972656q0 -1.94531 -0.389648 -6.80859q-0.388672 -4.86426 -0.77832 -10.3115q-0.389648 -6.22559 -0.779297 -13.2295q-18.6875 0 -28.8105 7.39258q-10.123 7.39355 -13.2383 23.7354q-3.50391 -5.44727 -9.14941 -11.0889 q-5.64551 -5.64258 -13.8213 -10.3115q-8.17676 -4.66895 -19.0781 -7.58789q-10.9014 -2.91797 -24.918 -2.91797t-26.8643 3.11328q-12.8486 3.1123 -22.9717 9.72754q-10.123 6.61426 -16.1582 17.3145q-6.03418 10.7002 -6.03418 25.4863q0 20.2324 8.56543 34.4346 t22.3867 22.957q13.8223 8.75488 30.7588 12.6455q16.9365 3.8916 33.6777 3.8916q19.4678 0 40.1025 -3.8916q-0.77832 10.5059 -4.67188 17.8994q-3.89355 7.39258 -10.123 12.0615t-13.8213 6.80957q-7.59277 2.13965 -15.7686 2.13965q-14.0166 0 -29.2012 -6.80859 q-15.1846 -6.80957 -28.8115 -20.4277q-2.33594 3.50195 -5.06152 6.80859q-2.72461 3.30762 -4.67188 6.03125q-1.94629 3.11328 -4.67188 6.61426q-2.72559 3.50195 -4.67188 7.39355q18.6885 15.9531 38.9336 23.7344q20.2461 7.78223 39.3242 7.78223 q21.4141 0 36.4033 -5.6416q14.9893 -5.64258 24.334 -15.5645t13.4326 -23.7344q4.08789 -13.8135 4.08789 -30.5449q0 -12.4512 -0.973633 -25.0967t-0.973633 -27.042q0 -10.8955 0.584961 -18.8711q0.583984 -7.97656 2.14062 -11.4785v0.777344z"/>
<glyph glyph-name="guillemotleft" horiz-adv-x="815" unicode="«" d="M340 305l409 240v-100l-242 -140q16 -9 30.5 -18.5t32.5 -18.5l179 -104v-98zM42 305q103 60 204.5 120t203.5 120v-100l-242 -140q16 -9 30.5 -18.5t32.5 -18.5l179 -104v-98z"/>
<glyph glyph-name="logicalnot" horiz-adv-x="467" unicode="¬" d="M423 293h-78v132h-306v78h384v-210z"/>
<glyph glyph-name="registered" horiz-adv-x="730" unicode="®" d="M334 379q26 0 40.5 8t21 18.5t7.5 21t1 16.5q0 22 -7 35t-18.5 19.5t-27 8t-33.5 1.5h-29v-128h45zM464 443q0 -38 -14 -67t-48 -45l125 -195h-71l-117 185h-50v-185h-59v436h92q10 0 33.5 -0.5t47.5 -12t42.5 -38.5t18.5 -78zM359 57q60 0 113 22.5t93 62t63 92.5 t23 113t-23 113t-63 92.5t-93 62.5t-113 23t-112.5 -23t-92 -62.5t-62.5 -92.5t-23 -113t23 -113t62.5 -92.5t92 -62t112.5 -22.5zM359 696q71 0 134.5 -27t111 -74.5t75.5 -111t28 -136.5q0 -69 -27 -132t-74 -111t-110.5 -76.5t-137.5 -28.5q-69 0 -132 26.5t-111 73.5 t-76.5 110.5t-28.5 137.5q0 70 27 133.5t74 111.5t110.5 76t136.5 28z"/>
<glyph glyph-name="macron" horiz-adv-x="536" unicode="¯" d="M485 824v-88h-445v88h445z"/>
<glyph glyph-name="degree" horiz-adv-x="243" unicode="°" d="M122 621q16 0 26.5 11.5t10.5 27.5q0 15 -10.5 26.5t-26.5 11.5q-18 0 -28.5 -11.5t-10.5 -26.5q0 -16 10.5 -27.5t28.5 -11.5zM122 746q18 0 33.5 -6.5t27 -18.5t18.5 -27.5t7 -33.5t-7 -34t-18.5 -27.5t-27 -18.5t-33.5 -7q-36 0 -62 25.5t-26 61.5t26 61t62 25z"/>
<glyph glyph-name="plusminus" horiz-adv-x="445" unicode="±" d="M176 217h-116v87h116v115h87v-115h116v-87h-116v-117h-87v117zM379 87v-87h-319v87h319z"/>
<glyph glyph-name="twosuperior" horiz-adv-x="308" unicode="²" d="M277.652 348.238v-48.2383h-266.331q57.3545 61.291 96.8223 106.691q39.4668 45.4004 63.8857 78.5986q24.418 33.1992 35.207 56.4668q10.79 23.2676 10.79 40.293q0 17.5928 -5.39453 30.9287q-5.39551 13.3369 -14.4814 22.417t-20.1592 13.6201t-22.999 4.54004 q-24.9863 0 -42.0215 -17.5928q-17.0371 -17.5928 -23.2832 -51.6426h-49.4043q3.40625 29.5098 15.0479 51.0752t27.8262 36.0361q16.1846 14.4717 35.4912 21.5654q19.3086 7.09375 38.0479 7.09375q24.4189 0 44.8623 -8.7959q20.4434 -8.79688 34.9238 -24.4033 t22.7148 -36.6035q8.23438 -20.998 8.23438 -45.4004q0 -24.9707 -11.0742 -52.2109q-11.0732 -27.2402 -30.3809 -56.4668t-45.998 -61.29q-26.6895 -32.0645 -57.3545 -66.6816h155.028z"/>
<glyph glyph-name="threesuperior" horiz-adv-x="293" unicode="³" d="M231.387 498.225q16.4912 -17.0762 25.3057 -38.4219t8.81445 -45.252q0 -24.4766 -9.38379 -46.1064q-9.38281 -21.6299 -25.5898 -37.8525t-37.8154 -25.6152q-21.6094 -9.3916 -45.4932 -9.3916q-22.7471 0 -42.9346 8.53809t-36.1104 23.3379 q-15.9229 14.7988 -26.4424 35.0068q-10.5205 20.207 -13.9326 43.5439h49.4736q6.25586 -26.1836 25.3057 -44.1133q19.0508 -17.9307 44.6406 -17.9307q14.2158 0 27.0107 5.40723q12.7949 5.4082 22.4629 15.085q9.66699 9.67676 15.0693 22.4834 q5.40234 12.8076 5.40234 27.6074q0 14.2305 -5.40234 26.7529t-15.3535 21.9141q-9.95215 9.39258 -23.3154 15.085q-13.3643 5.69141 -28.7178 6.26074v48.3838q13.6484 0.568359 25.0215 5.40723q11.373 4.83789 19.334 12.8076q7.96191 7.96875 12.5107 18.7832 q4.5498 10.8154 4.5498 22.7695q0 11.9531 -4.83398 22.7676q-4.83398 10.8154 -12.7949 18.7842q-7.96094 7.96973 -18.4814 12.8076t-22.4619 4.83789q-22.7471 0 -39.5225 -16.791q-16.7754 -16.792 -20.7568 -40.6992h-47.7676q1.70605 22.1992 10.8047 41.5527 t23.8838 33.584t33.8359 22.4834q19.0498 8.25391 39.5225 8.25391q22.1777 0 41.5117 -8.53809q19.335 -8.53809 33.8359 -23.0537q14.501 -14.5146 23.0312 -34.1523q8.5293 -19.6377 8.5293 -41.8369q0 -21.0615 -10.5195 -42.9766q-10.5205 -21.9141 -27.0117 -38.9902 q9.66699 -6.83105 11.373 -8.53906l3.41211 -3.41504v-0.569336z"/>
<glyph glyph-name="acute" horiz-adv-x="270" unicode="´" d="M151 735h-91q10 18 21.5 37.5t19.5 35.5l47 83h67z"/>
<glyph glyph-name="mu" horiz-adv-x="516" unicode="µ" d="M378 500h90v-500h-90l-1 63q-11 -13 -25 -25.5t-30.5 -23t-35 -17t-37.5 -6.5q-55 1 -93 21q-11 6 -20 12v-269h-90v486v25v234h90v-234v-27q0 -27 4.5 -56t16.5 -53t34 -39t58 -15q32 0 56.5 13t40.5 35t24 51.5t8 62.5v262z"/>
<glyph glyph-name="mu" horiz-adv-x="516" unicode="μ" d="M378 500h90v-500h-90l-1 63q-11 -13 -25 -25.5t-30.5 -23t-35 -17t-37.5 -6.5q-55 1 -93 21q-11 6 -20 12v-269h-90v486v25v234h90v-234v-27q0 -27 4.5 -56t16.5 -53t34 -39t58 -15q32 0 56.5 13t40.5 35t24 51.5t8 62.5v262z"/>
<glyph glyph-name="paragraph" horiz-adv-x="567" unicode="¶" d="M519 696v-86h-52v-855h-87v855h-79v-855l-79 6q-2 91 -4 189q-2 84 -2.5 186t-0.5 202q-37 3 -69 18t-55.5 39t-37 55.5t-13.5 67.5q0 37 14 69.5t38.5 56.5t57 38t69.5 14h300z"/>
<glyph glyph-name="periodcentered" horiz-adv-x="141" unicode="·" d="M23 303h88v-86h-88v86z"/>
<glyph glyph-name="cedilla" horiz-adv-x="296" unicode="¸" d="M213 -37q17 -22 17 -49q0 -6 -3 -21.5t-15.5 -32t-38 -29t-71.5 -12.5q-5 0 -14 0.5t-24 3.5v65q16 -3 25.5 -4t14.5 -1q32 0 46 10t14 19q0 11 -6 17.5t-14.5 9.5t-17.5 4t-15 1h-17l18 65h68l-6 -19q26 -10 39 -27z"/>
<glyph glyph-name="onesuperior" horiz-adv-x="143" unicode="¹" d="M94.75 698.127v-398.127h-49.5v398.127h49.5z"/>
<glyph glyph-name="ordmasculine" horiz-adv-x="377" unicode="º" d="M185 348q24 0 43.5 11t33 31t21 46.5t7.5 58.5q0 65 -28 106.5t-77 41.5t-77.5 -41.5t-28.5 -106.5q0 -32 7.5 -58.5t21 -46.5t33.5 -31t44 -11zM185 698q37 0 66.5 -15.5t50.5 -42.5t32 -64t11 -81t-11 -81t-32 -64t-50.5 -42t-66.5 -15t-67 15t-51 42t-32 64t-11 81 t11 81t32 64t51 42.5t67 15.5z"/>
<glyph glyph-name="guillemotright" horiz-adv-x="833" unicode="»" d="M67 65v99l245 141l-245 140v100l410 -240zM367 66v98l244 141l-244 140v100l143 -84q63 -38 131.5 -78t134.5 -78z"/>
<glyph glyph-name="onequarter" horiz-adv-x="518" unicode="¼" d="M312 157h99v126zM442 10h-31v115h-155q48 64 93 122t93 121v-211h38v-32h-38v-115zM101 694v-361h-50v361h50zM437 699l-366 -713h-54l365 713h55z"/>
<glyph glyph-name="onehalf" horiz-adv-x="547" unicode="½" d="M528 50v-50h-255q54 58 91.5 101t60.5 74.5t33 53t10 37.5q0 32 -17.5 48t-39.5 16q-46 0 -58 -64h-51q3 28 14 49.5t26.5 35t34 20.5t36.5 7q47 0 76.5 -31.5t29.5 -77.5q0 -24 -10 -49t-28 -52.5t-42.5 -57t-52.5 -60.5h142zM96 694v-361h-50v361h50zM432 699 l-366 -713h-55l364 713h57z"/>
<glyph glyph-name="threequarters" horiz-adv-x="616" unicode="¾" d="M535 700l-367 -713h-59l367 713h59zM265 439q0 -23 -8.5 -42.5t-22.5 -34t-33.5 -23t-41.5 -8.5q-19 0 -36.5 8t-32 21.5t-24.5 32.5t-14 40h46q7 -23 23.5 -38.5t37.5 -15.5q26 0 43.5 17t17.5 43q0 23 -19.5 40t-46.5 21v45q23 3 39 17t16 34t-15 35t-35 15t-33 -14 t-17 -37h-48q3 21 11.5 39t21.5 31t30 20.5t35 7.5q20 0 38 -7.5t31.5 -21t21 -31t7.5 -37.5q0 -17 -9.5 -35.5t-23.5 -35.5l12 -10q0 -1 1 -2q15 -17 21.5 -35.5t6.5 -38.5zM478 249l-66 -84h66v84zM568 165v-48h-41v-117h-49v117h-166l215 278v-230h41z"/>
<glyph glyph-name="questiondown" horiz-adv-x="442" unicode="¿" d="M287.01 366.005h-87.9951v84.9951h87.9951v-84.9951zM236.013 -245.957q-39.998 0 -74.9961 14.499q-34.9971 14.499 -61.4961 39.9971q-26.498 25.499 -41.9971 60.9961q-15.499 35.498 -15.499 77.4961q0 34.9971 11.999 64.4951q11.999 29.499 33.498 52.9971 q21.499 23.499 49.9971 41.998q28.498 18.498 61.4961 30.498v134.991h87.9951v-193.988q-32.998 -4.99902 -61.4971 -17.999q-28.498 -12.999 -49.4971 -30.998q-20.998 -17.998 -32.998 -39.4971q-11.999 -21.499 -11.999 -42.4971q0 -12 3.5 -29.999t14.499 -34.9971 q10.999 -16.999 31.998 -28.999q20.999 -11.999 54.9971 -11.999q34.9971 0 62.9961 14.499q27.998 14.499 49.9971 34.498l53.9961 -68.9961q-74.9951 -66.9951 -166.989 -66.9951z"/>
<glyph glyph-name="Agrave" horiz-adv-x="630" unicode="À" d="M435 227q-32 76 -61.5 145.5t-60.5 146.5l-124 -292h246zM630 0h-97l-59 138h-324l-59 -138h-97l315 739h-11l-61 157h66q21 -35 39 -68.5t38 -68.5l10 -20h-73z"/>
<glyph glyph-name="Aacute" horiz-adv-x="630" unicode="Á" d="M437 231q-32 77 -61.5 146.5t-61.5 147.5q-14 -35 -29 -68t-29 -67q-17 -37 -34.5 -77.5t-33.5 -81.5h249zM630 6h-96l-61 137h-322l-60 -137h-95q18 42 37 85t36 85q61 142 123 286q59 138 116 276h-75l54 96l34 61h66l-62 -157h-5z"/>
<glyph glyph-name="Acircumflex" horiz-adv-x="630" unicode="Â" d="M436 225q-32 78 -61.5 153t-61.5 153q-29 -71 -55 -133q-11 -26 -22 -52.5t-20.5 -50t-17 -42t-11.5 -28.5h249zM629 0h-96l-61 137h-322l-60 -137h-95q18 42 37 85t36 85q61 142 122.5 286.5t122.5 289.5zM286 737h-93l90 157h59l90 -157h-91l-29 70z"/>
<glyph glyph-name="Atilde" horiz-adv-x="630" unicode="Ã" d="M437 231q-32 77 -61.5 146.5t-61.5 147.5q-14 -35 -29 -68t-29 -67q-17 -37 -34.5 -77.5t-33.5 -81.5h249zM630 6h-96l-61 137h-322l-60 -137h-95q18 42 37 85t36 85q61 142 122.5 286.5t122.5 289.5zM448 850q2 -7 2.5 -11t0.5 -9q0 -42 -25.5 -66t-60.5 -24 q-16 0 -31 4q-11 3 -30 16h1l-11 7q-11 8 -23.5 14.5t-26.5 6.5q-11 0 -15.5 -16t-5.5 -33h-58q-3 13 -3 16l1 5q0 17 4.5 33.5t15 30t26.5 22t39 8.5q14 0 28 -6.5t29 -14.5l11 -6q12 -8 25.5 -13.5t27.5 -6.5h5t6.5 4.5t6 14.5t3.5 29h52z"/>
<glyph glyph-name="Adieresis" horiz-adv-x="630" unicode="Ä" d="M437 231q-32 77 -61.5 146.5t-61.5 147.5q-14 -35 -29 -68t-29 -67q-17 -37 -34.5 -77.5t-33.5 -81.5h249zM630 6h-96l-61 137h-322l-60 -137h-95q18 42 37 85t36 85q61 142 122.5 286.5t122.5 289.5zM178 832h89v-86h-89v86zM357 832h90v-86h-90v86z"/>
<glyph glyph-name="Aring" horiz-adv-x="630" unicode="Å" d="M437 231q-32 77 -61.5 146.5t-61.5 147.5q-14 -35 -29 -68t-29 -67q-17 -37 -34.5 -77.5t-33.5 -81.5h249zM630 6h-96l-61 137h-322l-60 -137h-95q18 42 37 85t36 85q61 142 123 286q59 138 117 277q-16 1 -31 7q-16 7 -28 19.5t-19 28.5t-7 34t7 33.5t19 27.5t28 19 t34 7t34 -7t28 -19t19 -27.5t7 -33.5t-7 -34t-19 -28.5t-28 -19.5q-13 -6 -27 -7zM312 789q15 0 27 11t12 28q0 16 -12 27.5t-27 11.5q-17 0 -28 -11.5t-11 -27.5q0 -17 11 -28t28 -11z"/>
<glyph glyph-name="AE" horiz-adv-x="835" unicode="Æ" d="M471 618v-216h237v-82h-237v-227h286v-88h-375v308h-102l-168 -312h-94l364 696v9h375v-88h-286zM381 396v93l-10 3q-5 -11 -12 -22.5t-13 -21.5v-1l-28 -51h63z"/>
<glyph glyph-name="Ccedilla" horiz-adv-x="639" unicode="Ç" d="M366 89q50 0 98 17.5t91 59.5l59 -60q-57 -54 -120 -80.5t-128 -26.5q-72 0 -135 27.5t-110.5 75.5t-75 113.5t-27.5 140.5q0 72 27.5 135.5t75 110.5t110.5 74.5t135 27.5q65 0 128 -25.5t120 -73.5l-59 -59q-42 32 -91.5 50t-97.5 18q-57 0 -105.5 -20t-84 -55 t-55.5 -82t-20 -101q0 -57 20 -106t55.5 -85t84 -56t105.5 -20zM446 -37q17 -22 17 -49q0 -6 -3 -21.5t-15.5 -32t-38 -29t-71.5 -12.5q-5 0 -14 0.5t-24 3.5v65q16 -3 25.5 -4t14.5 -1q32 0 46 10t14 19q0 11 -6 17.5t-14.5 9.5t-17.5 4t-15 1h-17l18 65h68l-6 -19 q26 -10 39 -27z"/>
<glyph glyph-name="Egrave" horiz-adv-x="473" unicode="È" d="M398 618h-286v-216h237v-82h-237v-227h286v-88h-375v701h375v-88zM157 896h67q23 -38 45 -78t43 -79h-92z"/>
<glyph glyph-name="Eacute" horiz-adv-x="473" unicode="É" d="M112 618v-216h237v-82h-237v-227h286v-88h-375v701h375v-88h-286zM251 739h-93l54 96l34 61h66z"/>
<glyph glyph-name="Ecircumflex" horiz-adv-x="473" unicode="Ê" d="M112 618v-216h237v-82h-237v-227h286v-88h-375v701h375v-88h-286zM354 739h-92l-28 66l-10 -27l-10 -22l-7 -17h-90l90 157h59z"/>
<glyph glyph-name="Edieresis" horiz-adv-x="473" unicode="Ë" d="M112 618v-216h237v-82h-237v-227h286v-88h-375v701h375v-88h-286zM102 832h89v-86h-89v86zM281 832h89v-86h-89v86z"/>
<glyph glyph-name="Igrave" horiz-adv-x="152" unicode="Ì" d="M117 700v-700h-89v700h89zM-1 892h66l88 -156h-91z"/>
<glyph glyph-name="Iacute" horiz-adv-x="152" unicode="Í" d="M117 700v-700h-89v700h89zM90 736h-91q10 18 21.5 37.5t19.5 35.5l47 83h67z"/>
<glyph glyph-name="Icircumflex" horiz-adv-x="152" unicode="Î" d="M117 700v-700h-89v700h89zM195 736h-93l-27 66l-26 -66h-91q10 18 21 37.5t20 35.5l47 83h60z"/>
<glyph glyph-name="Idieresis" horiz-adv-x="152" unicode="Ï" d="M117 700v-700h-89v700h89zM-57 822h88v-85h-88v85zM121 822h88v-85h-88v85z"/>
<glyph glyph-name="Eth" horiz-adv-x="728" unicode="Ð" d="M314 385v-88h-99v-213h99q66 0 119.5 18.5t91 52.5t58 82t20.5 108q0 63 -19 113t-55 85.5t-87.5 54t-117.5 18.5h-109v-231h99zM324 700q33 0 74 -5t82.5 -19t80.5 -38.5t69.5 -64t49 -95.5t18.5 -133q0 -81 -22.5 -138.5t-58 -96t-79.5 -60.5t-86.5 -33t-79.5 -14 t-58 -3h-189v297h-101v88h101v315h199z"/>
<glyph glyph-name="Ntilde" horiz-adv-x="569" unicode="Ñ" d="M565 -38l-446 554v-511h-82v747l447 -548v501h81v-743zM426 848q1 -6 2 -11.5t1 -7.5q0 -42 -25 -66t-61 -24q-8 0 -16 1t-18 4q-5 2 -12 6t-14 9h1l-10 6l-2 1q-12 8 -23.5 14.5t-25.5 6.5q-12 0 -17 -15.5t-6 -33.5h-57q-3 13 -3 16l1 5q0 17 4.5 34t15 30.5t26.5 21.5 t39 8q13 0 27 -6.5t29 -14.5l12 -6q13 -8 26.5 -13.5t26.5 -6.5h5t6.5 4.5t6 14.5t3.5 29h53z"/>
<glyph glyph-name="Ograve" horiz-adv-x="757" unicode="Ò" d="M374 615q-56 0 -104.5 -20t-84 -55.5t-55.5 -84t-20 -105.5q0 -53 20 -101t55.5 -84t84 -57.5t104.5 -21.5q53 0 101 21.5t84 57.5t57.5 84t21.5 101q0 57 -21.5 105.5t-58 84t-84.5 55.5t-100 20zM374 -3q-75 0 -140 28.5t-112 76.5t-74 112t-27 136q0 75 27 140 t74 112.5t112 74.5t140 27q72 0 136 -27t112.5 -74.5t77 -112.5t28.5 -140q0 -72 -28.5 -136t-77 -112t-112.5 -76.5t-136 -28.5zM300 892h66l88 -156h-91z"/>
<glyph glyph-name="Oacute" horiz-adv-x="757" unicode="Ó" d="M374 615q-56 0 -104.5 -20t-84 -55.5t-55.5 -84t-20 -105.5q0 -53 20 -101t55.5 -84t84 -57.5t104.5 -21.5q53 0 101 21.5t84 57.5t57.5 84t21.5 101q0 57 -21.5 105.5t-58 84t-84.5 55.5t-100 20zM374 -3q-75 0 -140 28.5t-112 76.5t-74 112t-27 136q0 75 27 140 t74 112.5t112 74.5t140 27q72 0 136 -27t112.5 -74.5t77 -112.5t28.5 -140q0 -72 -28.5 -136t-77 -112t-112.5 -76.5t-136 -28.5zM391 736h-91q10 18 21.5 37.5t19.5 35.5l47 83h67z"/>
<glyph glyph-name="Ocircumflex" horiz-adv-x="757" unicode="Ô" d="M374 615q-56 0 -104.5 -20t-84 -55.5t-55.5 -84t-20 -105.5q0 -53 20 -101t55.5 -84t84 -57.5t104.5 -21.5q53 0 101 21.5t84 57.5t57.5 84t21.5 101q0 57 -21.5 105.5t-58 84t-84.5 55.5t-100 20zM374 -3q-75 0 -140 28.5t-112 76.5t-74 112t-27 136q0 75 27 140 t74 112.5t112 74.5t140 27q72 0 136 -27t112.5 -74.5t77 -112.5t28.5 -140q0 -72 -28.5 -136t-77 -112t-112.5 -76.5t-136 -28.5zM496 736h-93l-27 66l-26 -66h-91q10 18 21 37.5t20 35.5l47 83h60z"/>
<glyph glyph-name="Otilde" horiz-adv-x="757" unicode="Õ" d="M374 615q-56 0 -104.5 -20t-84 -55.5t-55.5 -84t-20 -105.5q0 -53 20 -101t55.5 -84t84 -57.5t104.5 -21.5q53 0 101 21.5t84 57.5t57.5 84t21.5 101q0 57 -21.5 105.5t-58 84t-84.5 55.5t-100 20zM374 -3q-75 0 -140 28.5t-112 76.5t-74 112t-27 136q0 75 27 140 t74 112.5t112 74.5t140 27q72 0 136 -27t112.5 -74.5t77 -112.5t28.5 -140q0 -72 -28.5 -136t-77 -112t-112.5 -76.5t-136 -28.5zM516 845q1 -6 2 -11.5t1 -7.5q0 -41 -25 -65t-60 -24q-17 0 -32 3q-5 2 -14 7.5t-19 13.5q-13 8 -25.5 15t-29.5 7q-12 0 -16 -15t-5 -32h-58 q-2 11 -2 14v7q0 16 4.5 32.5t15 30t26 21.5t38.5 8q15 0 32 -8t32 -16h-1q14 -8 29 -14.5t29 -7.5q2 0 5 0.5t6 5t5.5 14t3.5 27.5h54z"/>
<glyph glyph-name="Odieresis" horiz-adv-x="757" unicode="Ö" d="M374 615q-56 0 -104.5 -20t-84 -55.5t-55.5 -84t-20 -105.5q0 -53 20 -101t55.5 -84t84 -57.5t104.5 -21.5q53 0 101 21.5t84 57.5t57.5 84t21.5 101q0 57 -21.5 105.5t-58 84t-84.5 55.5t-100 20zM374 -3q-75 0 -140 28.5t-112 76.5t-74 112t-27 136q0 75 27 140 t74 112.5t112 74.5t140 27q72 0 136 -27t112.5 -74.5t77 -112.5t28.5 -140q0 -72 -28.5 -136t-77 -112t-112.5 -76.5t-136 -28.5zM244 822h88v-85h-88v85zM422 822h88v-85h-88v85z"/>
<glyph glyph-name="multiply" horiz-adv-x="514" unicode="×" d="M312 494l149 -149l-59 -59l-150 148l-149 -148l-58 59l148 149l-148 150l58 59l149 -148l150 148l59 -59z"/>
<glyph glyph-name="Oslash" horiz-adv-x="757" unicode="Ø" d="M375 86q53 0 101 21.5t84.5 57.5t58 84t21.5 101q0 78 -38 139t-101 96l-81 -248q-8 -26 -17 -53t-19 -54l-47 -141q11 -2 22 -2.5t16 -0.5zM112 350q0 -72 37.5 -133t103.5 -101l80 248q7 19 14 39.5t14 41.5l55 167q-14 2 -23 2.5t-18 0.5q-56 0 -104.5 -20 t-83.5 -55.5t-55 -84t-20 -105.5zM526 671q45 -22 82.5 -55t64.5 -74t42 -89.5t15 -102.5q0 -72 -28.5 -136t-77 -112t-113 -76.5t-136.5 -28.5q-17 0 -32.5 1t-32.5 4l-23 -75h-95l32 104q-47 22 -84.5 55.5t-63.5 75t-40 89.5t-14 99q0 75 27 140t74.5 112.5t112 74.5 t139.5 27q17 0 33.5 -1t33.5 -4q3 11 7.5 23t7.5 23l10 30h94z"/>
<glyph glyph-name="Ugrave" horiz-adv-x="549" unicode="Ù" d="M521 700v-451q0 -52 -19 -98t-53 -80.5t-79.5 -55t-97.5 -20.5t-97.5 20t-79 54.5t-52.5 80.5t-19 99v451h88v-451q0 -38 13 -70t34.5 -56t50.5 -37.5t62 -13.5t62.5 13.5t51 37.5t34.5 56t13 70v451h88zM196 892h66l88 -156h-91z"/>
<glyph glyph-name="Uacute" horiz-adv-x="549" unicode="Ú" d="M521 700v-451q0 -52 -19 -98t-53 -80.5t-79.5 -55t-97.5 -20.5t-97.5 20t-79 54.5t-52.5 80.5t-19 99v451h88v-451q0 -38 13 -70t34.5 -56t50.5 -37.5t62 -13.5t62.5 13.5t51 37.5t34.5 56t13 70v451h88zM287 735h-91q10 18 21.5 37.5t19.5 35.5l47 83h67z"/>
<glyph glyph-name="Ucircumflex" horiz-adv-x="549" unicode="Û" d="M521 700v-451q0 -52 -19 -98t-53 -80.5t-79.5 -55t-97.5 -20.5t-97.5 20t-79 54.5t-52.5 80.5t-19 99v451h88v-451q0 -38 13 -70t34.5 -56t50.5 -37.5t62 -13.5t62.5 13.5t51 37.5t34.5 56t13 70v451h88zM392 736h-93l-27 66l-26 -66h-91q10 18 21 37.5t20 35.5l47 83h60 z"/>
<glyph glyph-name="Udieresis" horiz-adv-x="549" unicode="Ü" d="M521 700v-451q0 -52 -19 -98t-53 -80.5t-79.5 -55t-97.5 -20.5t-97.5 20t-79 54.5t-52.5 80.5t-19 99v451h88v-451q0 -38 13 -70t34.5 -56t50.5 -37.5t62 -13.5t62.5 13.5t51 37.5t34.5 56t13 70v451h88zM140 822h88v-85h-88v85zM318 822h88v-85h-88v85z"/>
<glyph glyph-name="Yacute" horiz-adv-x="643" unicode="Ý" d="M371 359l-9 -11v-348h-89v347l-49 66q-33 45 -67.5 89.5t-68.5 90.5l-81 107h110l202 -265l92 122l25 35l83 108h110zM334 735h-91q10 18 21.5 37.5t19.5 35.5l47 83h67z"/>
<glyph glyph-name="Thorn" horiz-adv-x="460" unicode="Þ" d="M221 228q25 0 47.5 10t39.5 27t27 39t10 47q0 26 -10 48.5t-27 39.5t-39.5 27t-47.5 10h-116v-248h116zM368 500q61 -61 61 -149q0 -42 -16.5 -80t-45 -66.5t-66.5 -45t-80 -16.5h-116v-143h-86v704h86v-143h116q42 0 80 -16t67 -45z"/>
<glyph glyph-name="germandbls" horiz-adv-x="491" unicode="ß" d="M405 363q61 -57 61 -153q0 -51 -16.5 -91.5t-44.5 -68t-65.5 -42.5t-79.5 -15q-18 0 -37.5 2.5t-39.5 10.5v102q19 -13 40 -21.5t38 -8.5q14 0 34.5 4t39.5 17.5t32.5 40t13.5 70.5q0 33 -13.5 56.5t-34 39.5t-44 26t-44.5 15q-20 4 -36.5 5t-27.5 1l-5 86q28 1 56.5 6.5 t51 17t36.5 29t14 43.5q0 10 -3 24.5t-14 28t-32 23t-57 9.5q-114 0 -114 -134v-486h-85v486q0 42 12.5 81.5t31.5 68.5q10 11 24 23.5t33.5 22.5t43.5 16.5t54 6.5q31 0 54.5 -5.5t41.5 -13.5t31 -18.5t22 -20.5q21 -23 31.5 -51.5t10.5 -60.5q0 -35 -15.5 -69t-49.5 -63 q31 -19 51 -40z"/>
<glyph glyph-name="agrave" horiz-adv-x="535" unicode="à" d="M214 75q49 0 81 17.5t50.5 41.5t25.5 49.5t7 42.5v18q-18 3 -42 5.5t-46 2.5q-29 0 -59 -5t-55 -16.5t-41 -31t-16 -49.5q0 -9 3 -22t13 -25t29 -20t50 -8zM469 97q6 -12 18 -16.5t12 -2.5q0 -5 -1 -17.5t-2 -26.5q-1 -16 -2 -34q-48 0 -74 19t-34 61q-9 -14 -23.5 -28.5 t-35.5 -26.5t-49 -19.5t-64 -7.5t-69 8t-59 25t-41.5 44.5t-15.5 65.5q0 52 22 88.5t57.5 59t79 32.5t86.5 10q50 0 103 -10q-2 27 -12 46t-26 31t-35.5 17.5t-40.5 5.5q-36 0 -75 -17.5t-74 -52.5q-6 9 -13 17.5t-12 15.5q-5 8 -12 17t-12 19q48 41 100 61t101 20 q55 0 93.5 -14.5t62.5 -40t34.5 -61t10.5 -78.5q0 -32 -2.5 -64.5t-2.5 -69.5q0 -28 1.5 -48.5t5.5 -29.5v2zM189 743h66l88 -156h-91z"/>
<glyph glyph-name="aacute" horiz-adv-x="535" unicode="á" d="M214 75q49 0 81 17.5t50.5 41.5t25.5 49.5t7 42.5v18q-18 3 -42 5.5t-46 2.5q-29 0 -59 -5t-55 -16.5t-41 -31t-16 -49.5q0 -9 3 -22t13 -25t29 -20t50 -8zM469 97q6 -12 18 -16.5t12 -2.5q0 -5 -1 -17.5t-2 -26.5q-1 -16 -2 -34q-48 0 -74 19t-34 61q-9 -14 -23.5 -28.5 t-35.5 -26.5t-49 -19.5t-64 -7.5t-69 8t-59 25t-41.5 44.5t-15.5 65.5q0 52 22 88.5t57.5 59t79 32.5t86.5 10q50 0 103 -10q-2 27 -12 46t-26 31t-35.5 17.5t-40.5 5.5q-36 0 -75 -17.5t-74 -52.5q-6 9 -13 17.5t-12 15.5q-5 8 -12 17t-12 19q48 41 100 61t101 20 q55 0 93.5 -14.5t62.5 -40t34.5 -61t10.5 -78.5q0 -32 -2.5 -64.5t-2.5 -69.5q0 -28 1.5 -48.5t5.5 -29.5v2zM280 586h-91q10 18 21.5 37.5t19.5 35.5l47 83h67z"/>
<glyph glyph-name="acircumflex" horiz-adv-x="535" unicode="â" d="M214 75q49 0 81 17.5t50.5 41.5t25.5 49.5t7 42.5v18q-18 3 -42 5.5t-46 2.5q-29 0 -59 -5t-55 -16.5t-41 -31t-16 -49.5q0 -9 3 -22t13 -25t29 -20t50 -8zM469 97q6 -12 18 -16.5t12 -2.5q0 -5 -1 -17.5t-2 -26.5q-1 -16 -2 -34q-48 0 -74 19t-34 61q-9 -14 -23.5 -28.5 t-35.5 -26.5t-49 -19.5t-64 -7.5t-69 8t-59 25t-41.5 44.5t-15.5 65.5q0 52 22 88.5t57.5 59t79 32.5t86.5 10q50 0 103 -10q-2 27 -12 46t-26 31t-35.5 17.5t-40.5 5.5q-36 0 -75 -17.5t-74 -52.5q-6 9 -13 17.5t-12 15.5q-5 8 -12 17t-12 19q48 41 100 61t101 20 q55 0 93.5 -14.5t62.5 -40t34.5 -61t10.5 -78.5q0 -32 -2.5 -64.5t-2.5 -69.5q0 -28 1.5 -48.5t5.5 -29.5v2zM385 587h-93l-27 66l-26 -66h-91q10 18 21 37.5t20 35.5l47 83h60z"/>
<glyph glyph-name="atilde" horiz-adv-x="535" unicode="ã" d="M214 75q49 0 81 17.5t50.5 41.5t25.5 49.5t7 42.5v18q-18 3 -42 5.5t-46 2.5q-29 0 -59 -5t-55 -16.5t-41 -31t-16 -49.5q0 -9 3 -22t13 -25t29 -20t50 -8zM469 97q6 -12 18 -16.5t12 -2.5q0 -5 -1 -17.5t-2 -26.5q-1 -16 -2 -34q-48 0 -74 19t-34 61q-9 -14 -23.5 -28.5 t-35.5 -26.5t-49 -19.5t-64 -7.5t-69 8t-59 25t-41.5 44.5t-15.5 65.5q0 52 22 88.5t57.5 59t79 32.5t86.5 10q50 0 103 -10q-2 27 -12 46t-26 31t-35.5 17.5t-40.5 5.5q-36 0 -75 -17.5t-74 -52.5q-6 9 -13 17.5t-12 15.5q-5 8 -12 17t-12 19q48 41 100 61t101 20 q55 0 93.5 -14.5t62.5 -40t34.5 -61t10.5 -78.5q0 -32 -2.5 -64.5t-2.5 -69.5q0 -28 1.5 -48.5t5.5 -29.5v2zM405 736q1 -6 2 -11.5t1 -7.5q0 -41 -25 -65t-60 -24q-17 0 -32 3q-5 2 -14 7.5t-19 13.5q-13 8 -25.5 15t-29.5 7q-12 0 -16 -15t-5 -32h-58q-2 11 -2 14v7 q0 16 4.5 32.5t15 30t26 21.5t38.5 8q15 0 32 -8t32 -16h-1q14 -8 29 -14.5t29 -7.5q2 0 5 0.5t6 5t5.5 14t3.5 27.5h54z"/>
<glyph glyph-name="adieresis" horiz-adv-x="535" unicode="ä" d="M214 75q49 0 81 17.5t50.5 41.5t25.5 49.5t7 42.5v18q-18 3 -42 5.5t-46 2.5q-29 0 -59 -5t-55 -16.5t-41 -31t-16 -49.5q0 -9 3 -22t13 -25t29 -20t50 -8zM469 97q6 -12 18 -16.5t12 -2.5q0 -5 -1 -17.5t-2 -26.5q-1 -16 -2 -34q-48 0 -74 19t-34 61q-9 -14 -23.5 -28.5 t-35.5 -26.5t-49 -19.5t-64 -7.5t-69 8t-59 25t-41.5 44.5t-15.5 65.5q0 52 22 88.5t57.5 59t79 32.5t86.5 10q50 0 103 -10q-2 27 -12 46t-26 31t-35.5 17.5t-40.5 5.5q-36 0 -75 -17.5t-74 -52.5q-6 9 -13 17.5t-12 15.5q-5 8 -12 17t-12 19q48 41 100 61t101 20 q55 0 93.5 -14.5t62.5 -40t34.5 -61t10.5 -78.5q0 -32 -2.5 -64.5t-2.5 -69.5q0 -28 1.5 -48.5t5.5 -29.5v2zM133 744h88v-85h-88v85zM311 744h88v-85h-88v85z"/>
<glyph glyph-name="aring" horiz-adv-x="535" unicode="å" d="M214 75q49 0 81 17.5t50.5 41.5t25.5 49.5t7 42.5v18q-18 3 -42 5.5t-46 2.5q-29 0 -59 -5t-55 -16.5t-41 -31t-16 -49.5q0 -9 3 -22t13 -25t29 -20t50 -8zM469 97q6 -12 18 -16.5t12 -2.5q0 -5 -1 -17.5t-2 -26.5q-1 -16 -2 -34q-48 0 -74 19t-34 61q-9 -14 -23.5 -28.5 t-35.5 -26.5t-49 -19.5t-64 -7.5t-69 8t-59 25t-41.5 44.5t-15.5 65.5q0 52 22 88.5t57.5 59t79 32.5t86.5 10q50 0 103 -10q-2 27 -12 46t-26 31t-35.5 17.5t-40.5 5.5q-36 0 -75 -17.5t-74 -52.5q-6 9 -13 17.5t-12 15.5q-5 8 -12 17t-12 19q48 41 100 61t101 20 q55 0 93.5 -14.5t62.5 -40t34.5 -61t10.5 -78.5q0 -32 -2.5 -64.5t-2.5 -69.5q0 -28 1.5 -48.5t5.5 -29.5v2zM267 619q16 0 26.5 11t10.5 28q0 16 -10.5 27t-26.5 11q-18 0 -28.5 -11t-10.5 -27q0 -17 10.5 -28t28.5 -11zM267 745q18 0 33.5 -7t27 -18.5t18.5 -27.5t7 -34 t-7 -34t-18.5 -28t-27 -19t-33.5 -7q-36 0 -62 25.5t-26 62.5q0 36 26 61.5t62 25.5z"/>
<glyph glyph-name="ae" horiz-adv-x="933" unicode="æ" d="M206 75q49 0 81 17.5t50.5 41.5t25.5 49.5t7 42.5v18q-18 3 -42 5.5t-46 2.5q-29 0 -59 -5t-55.5 -16.5t-41.5 -31t-16 -49.5q0 -9 3.5 -22t14 -25t29 -20t49.5 -8zM637 422q-50 0 -92 -26.5t-68 -69.5h313q-14 22 -32 39.5t-38.5 30t-42 19.5t-40.5 7zM639 78 q22 0 45 8.5t45 22.5t40.5 33.5t31.5 42.5l47 -15q8 -4 16.5 -7.5t16.5 -5.5q-41 -74 -101 -117.5t-141 -43.5q-70 0 -128 32.5t-96 82.5q-16 -25 -27 -37.5t-19 -20.5v1q-19 -20 -58 -38t-105 -18q-36 0 -69.5 8t-59.5 25t-41.5 44.5t-15.5 65.5q0 52 22.5 88.5t57.5 59 t79 32.5t88 10q48 0 101 -10q-8 50 -40.5 75t-72.5 25q-36 0 -75 -18t-74 -55q-5 8 -11.5 17t-11.5 15q-6 8 -13.5 19t-12.5 21q48 41 100 61t100 20q65 0 108.5 -23t69.5 -64q39 42 90.5 66t113.5 24q53 0 97.5 -20.5t78.5 -55.5t55.5 -81.5t28.5 -98.5h-442 q3 -36 17.5 -67t38.5 -54t56 -36t70 -13z"/>
<glyph glyph-name="ccedilla" horiz-adv-x="461" unicode="ç" d="M268 78q32 0 60.5 12.5t60.5 34.5l60 -61q-47 -39 -89.5 -53.5t-91.5 -14.5q-55 0 -102 19.5t-81.5 53t-54 79t-19.5 97.5q0 55 19.5 102.5t54 82.5t81.5 54.5t102 19.5q48 0 92 -16t89 -52l-60 -61q-29 20 -59 33.5t-62 13.5q-35 0 -67 -14t-56 -38.5t-38 -56.5t-14 -68 q0 -33 14 -63t38 -53t56 -37t67 -14zM340 -37q17 -22 17 -49q0 -6 -3 -21.5t-15.5 -32t-38 -29t-71.5 -12.5q-5 0 -14 0.5t-24 3.5v65q16 -3 25.5 -4t14.5 -1q32 0 46 10t14 19q0 11 -6 17.5t-14.5 9.5t-17.5 4t-15 1h-17l18 65h68l-6 -19q26 -10 39 -27z"/>
<glyph glyph-name="egrave" horiz-adv-x="585" unicode="è" d="M265 421q-32 0 -57.5 -10.5t-44.5 -27.5t-30.5 -39t-14.5 -45h289q-6 25 -19 47.5t-31.5 39t-41.5 26t-50 9.5zM471 97q-40 -48 -91 -75t-114 -27q-59 0 -103.5 19t-74.5 52.5t-45 79.5t-15 100q0 51 15 97t45 81t74.5 55.5t103.5 20.5q54 0 98 -21t74.5 -58t47.5 -88 t17 -110h-388q1 -33 11 -60.5t29 -47.5t47 -31.5t64 -11.5q35 0 63 12.5t47 28.5q22 18 39 41zM214 743h66l88 -156h-91z"/>
<glyph glyph-name="eacute" horiz-adv-x="585" unicode="é" d="M265 421q-32 0 -57.5 -10.5t-44.5 -27.5t-30.5 -39t-14.5 -45h289q-6 25 -19 47.5t-31.5 39t-41.5 26t-50 9.5zM471 97q-40 -48 -91 -75t-114 -27q-59 0 -103.5 19t-74.5 52.5t-45 79.5t-15 100q0 51 15 97t45 81t74.5 55.5t103.5 20.5q54 0 98 -21t74.5 -58t47.5 -88 t17 -110h-388q1 -33 11 -60.5t29 -47.5t47 -31.5t64 -11.5q35 0 63 12.5t47 28.5q22 18 39 41zM305 586h-91q10 18 21.5 37.5t19.5 35.5l47 83h67z"/>
<glyph glyph-name="ecircumflex" horiz-adv-x="585" unicode="ê" d="M265 421q-32 0 -57.5 -10.5t-44.5 -27.5t-30.5 -39t-14.5 -45h289q-6 25 -19 47.5t-31.5 39t-41.5 26t-50 9.5zM471 97q-40 -48 -91 -75t-114 -27q-59 0 -103.5 19t-74.5 52.5t-45 79.5t-15 100q0 51 15 97t45 81t74.5 55.5t103.5 20.5q54 0 98 -21t74.5 -58t47.5 -88 t17 -110h-388q1 -33 11 -60.5t29 -47.5t47 -31.5t64 -11.5q35 0 63 12.5t47 28.5q22 18 39 41zM410 587h-93l-27 66l-26 -66h-91q10 18 21 37.5t20 35.5l47 83h60z"/>
<glyph glyph-name="edieresis" horiz-adv-x="585" unicode="ë" d="M265 421q-32 0 -57.5 -10.5t-44.5 -27.5t-30.5 -39t-14.5 -45h289q-6 25 -19 47.5t-31.5 39t-41.5 26t-50 9.5zM471 97q-40 -48 -91 -75t-114 -27q-59 0 -103.5 19t-74.5 52.5t-45 79.5t-15 100q0 51 15 97t45 81t74.5 55.5t103.5 20.5q54 0 98 -21t74.5 -58t47.5 -88 t17 -110h-388q1 -33 11 -60.5t29 -47.5t47 -31.5t64 -11.5q35 0 63 12.5t47 28.5q22 18 39 41zM158 744h88v-85h-88v85zM336 744h88v-85h-88v85z"/>
<glyph glyph-name="igrave" horiz-adv-x="187" unicode="ì" d="M16 749h66l88 -156h-91zM135 500v-500h-88v500h88z"/>
<glyph glyph-name="iacute" horiz-adv-x="187" unicode="í" d="M107 592h-91q10 18 21.5 37.5t19.5 35.5l47 83h67zM135 500v-500h-88v500h88z"/>
<glyph glyph-name="icircumflex" horiz-adv-x="187" unicode="î" d="M213 593h-93l-27 66l-26 -66h-91q10 18 21 37.5t20 35.5l47 83h60zM135 500v-500h-88v500h88z"/>
<glyph glyph-name="idieresis" horiz-adv-x="187" unicode="ï" d="M-38 656h88v-85h-88v85zM140 656h88v-85h-88v85zM135 500v-500h-88v500h88z"/>
<glyph glyph-name="eth" horiz-adv-x="554" unicode="ð" d="M180 503l-20 75q44 11 90 23q12 3 22 6q-4 5 -8 9q-28 31 -52.5 50.5t-42.5 30.5h142q27 -27 56 -64l131 34l19 -77l-103 -27q22 -37 41 -78q26 -63 40 -123t14 -106q0 -55 -18.5 -103t-51.5 -84t-78 -56.5t-97 -20.5q-48 0 -91.5 19t-75.5 51t-51 75.5t-19 91.5 q0 49 18 92t52 77v-1q33 34 77 52t90 18q27 0 55 -7.5t63 -24.5q-29 61 -59 105zM264 77q33 0 61 12t48.5 33t32 48.5t11.5 58.5q0 33 -12 61t-33 48.5t-49 32.5t-59 12q-32 0 -59.5 -12t-48 -33t-32.5 -49t-12 -60t12 -59.5t32.5 -48t48 -32.5t59.5 -12z"/>
<glyph glyph-name="ntilde" horiz-adv-x="490" unicode="ñ" d="M120 0h-88v500h88l1 -60q6 9 17.5 21t27 22.5t36.5 18t47 7.5q54 0 92.5 -20.5t63 -55t36 -80t11.5 -94.5v-259h-89v261q0 27 -4.5 56t-17 52.5t-34.5 39t-58 15.5q-32 0 -56 -13t-40.5 -35t-24.5 -51.5t-8 -62.5v-262zM382 736q1 -6 2 -11.5t1 -7.5q0 -41 -25 -65 t-60 -24q-17 0 -32 3q-5 2 -14 7.5t-19 13.5q-13 8 -25.5 15t-29.5 7q-12 0 -16 -15t-5 -32h-58q-2 11 -2 14v7q0 16 4.5 32.5t15 30t26 21.5t38.5 8q15 0 32 -8t32 -16h-1q14 -8 29 -14.5t29 -7.5q2 0 5 0.5t6 5t5.5 14t3.5 27.5h54z"/>
<glyph glyph-name="ograve" horiz-adv-x="550" unicode="ò" d="M270 419q-37 0 -67.5 -14t-53 -37.5t-35 -54t-12.5 -64.5q0 -36 12.5 -67t35 -53.5t53 -35t67.5 -12.5t68 12.5t53.5 35t35 53.5t12.5 67q0 34 -12.5 64.5t-34.5 54t-53.5 37.5t-68.5 14zM270 -4q-51 0 -97 19t-80.5 53t-55 80.5t-20.5 100.5q0 51 20.5 97.5t55 81.5 t80.5 55.5t97 20.5t97.5 -20.5t81.5 -55.5t55.5 -81.5t20.5 -97.5q0 -54 -20.5 -100.5t-55.5 -80.5t-81.5 -53t-97.5 -19zM196 743h66l88 -156h-91z"/>
<glyph glyph-name="oacute" horiz-adv-x="550" unicode="ó" d="M270 419q-37 0 -67.5 -14t-53 -37.5t-35 -54t-12.5 -64.5q0 -36 12.5 -67t35 -53.5t53 -35t67.5 -12.5t68 12.5t53.5 35t35 53.5t12.5 67q0 34 -12.5 64.5t-34.5 54t-53.5 37.5t-68.5 14zM270 -4q-51 0 -97 19t-80.5 53t-55 80.5t-20.5 100.5q0 51 20.5 97.5t55 81.5 t80.5 55.5t97 20.5t97.5 -20.5t81.5 -55.5t55.5 -81.5t20.5 -97.5q0 -54 -20.5 -100.5t-55.5 -80.5t-81.5 -53t-97.5 -19zM287 586h-91q10 18 21.5 37.5t19.5 35.5l47 83h67z"/>
<glyph glyph-name="ocircumflex" horiz-adv-x="550" unicode="ô" d="M270 419q-37 0 -67.5 -14t-53 -37.5t-35 -54t-12.5 -64.5q0 -36 12.5 -67t35 -53.5t53 -35t67.5 -12.5t68 12.5t53.5 35t35 53.5t12.5 67q0 34 -12.5 64.5t-34.5 54t-53.5 37.5t-68.5 14zM270 -4q-51 0 -97 19t-80.5 53t-55 80.5t-20.5 100.5q0 51 20.5 97.5t55 81.5 t80.5 55.5t97 20.5t97.5 -20.5t81.5 -55.5t55.5 -81.5t20.5 -97.5q0 -54 -20.5 -100.5t-55.5 -80.5t-81.5 -53t-97.5 -19zM392 587h-93l-27 66l-26 -66h-91q10 18 21 37.5t20 35.5l47 83h60z"/>
<glyph glyph-name="otilde" horiz-adv-x="550" unicode="õ" d="M270 419q-37 0 -67.5 -14t-53 -37.5t-35 -54t-12.5 -64.5q0 -36 12.5 -67t35 -53.5t53 -35t67.5 -12.5t68 12.5t53.5 35t35 53.5t12.5 67q0 34 -12.5 64.5t-34.5 54t-53.5 37.5t-68.5 14zM270 -4q-51 0 -97 19t-80.5 53t-55 80.5t-20.5 100.5q0 51 20.5 97.5t55 81.5 t80.5 55.5t97 20.5t97.5 -20.5t81.5 -55.5t55.5 -81.5t20.5 -97.5q0 -54 -20.5 -100.5t-55.5 -80.5t-81.5 -53t-97.5 -19zM412 736q1 -6 2 -11.5t1 -7.5q0 -41 -25 -65t-60 -24q-17 0 -32 3q-5 2 -14 7.5t-19 13.5q-13 8 -25.5 15t-29.5 7q-12 0 -16 -15t-5 -32h-58 q-2 11 -2 14v7q0 16 4.5 32.5t15 30t26 21.5t38.5 8q15 0 32 -8t32 -16h-1q14 -8 29 -14.5t29 -7.5q2 0 5 0.5t6 5t5.5 14t3.5 27.5h54z"/>
<glyph glyph-name="odieresis" horiz-adv-x="550" unicode="ö" d="M270 419q-37 0 -67.5 -14t-53 -37.5t-35 -54t-12.5 -64.5q0 -36 12.5 -67t35 -53.5t53 -35t67.5 -12.5t68 12.5t53.5 35t35 53.5t12.5 67q0 34 -12.5 64.5t-34.5 54t-53.5 37.5t-68.5 14zM270 -4q-51 0 -97 19t-80.5 53t-55 80.5t-20.5 100.5q0 51 20.5 97.5t55 81.5 t80.5 55.5t97 20.5t97.5 -20.5t81.5 -55.5t55.5 -81.5t20.5 -97.5q0 -54 -20.5 -100.5t-55.5 -80.5t-81.5 -53t-97.5 -19zM140 744h88v-85h-88v85zM318 744h88v-85h-88v85z"/>
<glyph glyph-name="divide" horiz-adv-x="185" unicode="÷" d="M53 90h89v-85h-89v85zM280 304v-87h-377v87h377zM53 420v85h89v-85h-89z"/>
<glyph glyph-name="oslash" horiz-adv-x="550" unicode="ø" d="M395 131q22 23 35 53.5t13 66.5q0 44 -23 84t-65 66l-38 -128l-12 -45l-44 -145h13q37 0 67.5 13t54.5 35h-1zM268 421q-37 -3 -67 -18t-51 -38.5t-32 -52.5t-11 -61q0 -85 71 -139l30 100l15 53zM484 390q22 -31 33.5 -66t11.5 -73q0 -55 -21 -101.5t-56 -80t-81 -52.5 t-97 -19q-8 0 -15 -0.5t-21 1.5q-2 -8 -5 -16.5t-5 -14.5h-91l18 60q-60 33 -97.5 90.5t-37.5 132.5q0 51 20.5 97t55 81t80.5 56t98 21q2 0 5 -0.5t5 -0.5h5l9 23q1 2 1.5 5.5t3.5 8.5l4 10h90l-21 -71q34 -18 62 -41t46 -50z"/>
<glyph glyph-name="ugrave" d="M385 500h90v-500h-90l-1 60q-5 -8 -15.5 -19t-26 -21.5t-37 -18t-49.5 -7.5q-54 0 -92.5 20t-63 54t-36 79t-11.5 94v259h90v-261q0 -27 4.5 -56t17 -53t34.5 -39t57 -15q32 0 56.5 13t40.5 35t24 51.5t8 62.5v262zM181 743h66l88 -156h-91z" unicode="ù"/>
<glyph glyph-name="uacute" d="M385 500h90v-500h-90l-1 60q-5 -8 -15.5 -19t-26 -21.5t-37 -18t-49.5 -7.5q-54 0 -92.5 20t-63 54t-36 79t-11.5 94v259h90v-261q0 -27 4.5 -56t17 -53t34.5 -39t57 -15q32 0 56.5 13t40.5 35t24 51.5t8 62.5v262zM272 586h-91q10 18 21.5 37.5t19.5 35.5l47 83h67z" unicode="ú"/>
<glyph glyph-name="ucircumflex" d="M385 500h90v-500h-90l-1 60q-5 -8 -15.5 -19t-26 -21.5t-37 -18t-49.5 -7.5q-54 0 -92.5 20t-63 54t-36 79t-11.5 94v259h90v-261q0 -27 4.5 -56t17 -53t34.5 -39t57 -15q32 0 56.5 13t40.5 35t24 51.5t8 62.5v262zM377 587h-93l-27 66l-26 -66h-91q10 18 21 37.5 t20 35.5l47 83h60z" unicode="û"/>
<glyph glyph-name="udieresis" d="M385 500h90v-500h-90l-1 60q-5 -8 -15.5 -19t-26 -21.5t-37 -18t-49.5 -7.5q-54 0 -92.5 20t-63 54t-36 79t-11.5 94v259h90v-261q0 -27 4.5 -56t17 -53t34.5 -39t57 -15q32 0 56.5 13t40.5 35t24 51.5t8 62.5v262zM125 745h88v-85h-88v85zM303 745h88v-85h-88v85z" unicode="ü"/>
<glyph glyph-name="yacute" horiz-adv-x="493" unicode="ý" d="M493 500l-403 -746h-102l205 378l-222 368h105l167 -276q8 12 17 30q11 20 21 40.5t20 36.5v-1q22 38 43.5 80.5t41.5 80.5l5 9h102zM259 586h-91q10 18 21.5 37.5t19.5 35.5l47 83h67z"/>
<glyph glyph-name="thorn" horiz-adv-x="482" unicode="þ" d="M192 82q34 0 64.5 13t53 36t35.5 53t13 65t-13 65.5t-35.5 53t-53 35.5t-64.5 13h-69v-334h69zM369 425q35 -35 54 -80t19 -96q0 -53 -20 -98.5t-54.5 -79.5t-79.5 -53.5t-96 -19.5h-69v-243h-84v941h84v-196h69q51 0 96.5 -18.5t80.5 -56.5z"/>
<glyph glyph-name="OE" horiz-adv-x="846" unicode="Œ" d="M375 611q-57 -2 -105 -22t-82.5 -55t-53.5 -82t-19 -102q0 -52 19 -98.5t53.5 -82t82.5 -57.5t105 -23v522zM462 612v-215h287v-82h-287v-227h336v-88h-418q-75 0 -140 28t-112 75.5t-74 111t-27 135.5q0 75 27 139t74 111t112 73.5t140 26.5h418v-88h-336z"/>
<glyph glyph-name="oe" horiz-adv-x="927" unicode="œ" d="M261 81q37 0 68 12.5t53.5 35t35 53.5t12.5 67q0 34 -12.5 64.5t-34.5 54t-53.5 37.5t-68.5 14t-67.5 -14t-53 -37.5t-35 -54t-12.5 -64.5q0 -36 12.5 -67t35 -53.5t53 -35t67.5 -12.5zM667 421q-31 0 -57 -10.5t-44.5 -27.5t-30 -39t-14.5 -45h288q-6 25 -18.5 47.5 t-31 39t-42 26t-50.5 9.5zM669 72q35 0 62 12.5t46 28.5q22 18 39 41l58 -57q-40 -48 -91 -75t-114 -27q-73 0 -123 27t-79 78q-35 -48 -89.5 -76t-116.5 -28q-51 0 -97 19t-81 53t-55.5 80.5t-20.5 100.5q0 51 20.5 97.5t55.5 81.5t81 55.5t97 20.5q63 0 118 -31t90 -80 q29 50 78.5 78.5t121.5 28.5q54 0 97.5 -21t74 -58t47.5 -88t17 -110h-387q1 -33 11 -60.5t29 -47.5t47 -31.5t64 -11.5z"/>
<glyph glyph-name="Scaron" horiz-adv-x="529" unicode="Š" d="M254 -1q-55 0 -101 13.5t-77 27.5q-23 10 -42 21.5t-29 17.5l37 71l41 -22v1q32 -15 78 -30t94 -15q34 0 62 8.5t47 21.5q32 30 32 79q0 46 -47 78q-21 15 -49.5 28.5t-61.5 26.5q-38 17 -74.5 34.5t-67.5 41.5q-69 57 -69 134q0 41 17 71h-1q17 32 46 57q60 48 154 48 q47 0 88 -10q40 -10 67 -19q22 -6 38 -13l-41 -76q-29 11 -69 21.5t-83 10.5q-14 0 -39 -3.5t-47 -17.5q-42 -23 -42 -74q0 -18 12 -32.5t32 -28t46 -26t54 -24.5q38 -17 79.5 -36t75.5 -47q77 -60 77 -146q0 -44 -21 -81.5t-57 -63.5q-32 -20 -74 -33t-85 -14zM395 896 q-13 -22 -25.5 -45t-23.5 -43l-39 -69h-61l-42 75l-46 82h92l26 -67q7 16 14.5 33.5t12.5 33.5h92z"/>
<glyph glyph-name="scaron" horiz-adv-x="418" unicode="š" d="M118 375q0 -12 8.5 -23t22.5 -20.5t33 -19t39 -18.5q27 -12 55.5 -26.5t51.5 -32.5t37.5 -42t14.5 -55q0 -61 -47 -100t-130 -39q-42 0 -76.5 9t-59.5 20.5t-38 21t-13 10.5l35 67q12 -6 30 -14t38.5 -14.5t42 -11.5t41.5 -5q35 0 57 14t22 42q0 24 -27 39.5t-65 32.5 l-13 7v-1q-26 12 -51.5 25t-46.5 31.5t-34 44t-13 62.5q0 59 42.5 95.5t119.5 36.5q33 0 60 -6.5t47 -14.5q23 -9 42 -20l-37 -70q-18 9 -49 19.5t-63 10.5q-35 0 -55.5 -16t-20.5 -39zM322 696l-39 -67q-12 -21 -25.5 -42.5t-26.5 -45.5h-59l-88 155h91l27 -65l26 65h94z "/>
<glyph glyph-name="Ydieresis" horiz-adv-x="643" unicode="Ÿ" d="M372 364l-9 -11v-348h-89v347l-49 66q-33 45 -67.5 89.5t-68.5 90.5l-81 107h110l202 -265l92 122l25 35l83 108h110zM184 832h89v-86h-89v86zM363 832h90v-86h-90v86z"/>
<glyph glyph-name="circumflex" horiz-adv-x="306" unicode="ˆ" d="M270 736h-93l-27 66l-26 -66h-91q10 18 21 37.5t20 35.5l47 83h60z"/>
<glyph glyph-name="ring" horiz-adv-x="239" unicode="˚" d="M122 785q16 0 26.5 11t10.5 28q0 16 -10.5 27t-26.5 11q-18 0 -28.5 -11t-10.5 -27q0 -17 10.5 -28t28.5 -11zM122 911q18 0 33.5 -7t27 -18.5t18.5 -27.5t7 -34t-7 -34t-18.5 -28t-27 -19t-33.5 -7q-36 0 -62 25.5t-26 62.5q0 36 26 61.5t62 25.5z"/>
<glyph glyph-name="tilde" horiz-adv-x="360" unicode="˜" d="M322 845q1 -6 2 -11.5t1 -7.5q0 -41 -25 -65t-60 -24q-17 0 -32 3q-5 2 -14 7.5t-19 13.5q-13 8 -25.5 15t-29.5 7q-12 0 -16 -15t-5 -32h-58q-2 11 -2 14v7q0 16 4.5 32.5t15 30t26 21.5t38.5 8q15 0 32 -8t32 -16h-1q14 -8 29 -14.5t29 -7.5q2 0 5 0.5t6 5t5.5 14 t3.5 27.5h54z"/>
<glyph glyph-name="pi" horiz-adv-x="487" unicode="π" d="M464 104q-2 -44 -21 -73.5t-49 -29.5q-45 0 -67 34t-22 112v270h-120v-306q0 -26 -4 -54t-13 -57h-92q8 20 16.5 51.5t8.5 59.5l-1 307q-22 -2 -40 -8t-28 -11l-33 79q14 7 43.5 14.5t61.5 7.5h341v-83h-56v-270v-47.5t11 -15.5v20h64z"/>
<glyph glyph-name="endash" horiz-adv-x="409" unicode="–" d="M357 304v-87h-318v87h318z"/>
<glyph glyph-name="emdash" horiz-adv-x="529" unicode="—" d="M485 304v-87h-445v87h445z"/>
<glyph glyph-name="quoteleft" horiz-adv-x="123" unicode="‘" d="M50 631h-91q10 18 21.5 37.5t19.5 35.5l47 83h67z"/>
<glyph glyph-name="quotesinglbase" horiz-adv-x="145" unicode="‚" d="M33 74h91l-89 -156h-65z"/>
<glyph glyph-name="quotedblleft" horiz-adv-x="246" unicode="“" d="M166 631h-93l90 156h64zM51 631h-91q9 18 20.5 37.5t20.5 35.5l47 83h66z"/>
<glyph glyph-name="quotedblright" horiz-adv-x="230" unicode="”" d="M-40 787h65l89 -156h-92zM73 787h66l50 -87l38 -69h-91z"/>
<glyph glyph-name="dagger" horiz-adv-x="212" unicode="†" d="M250 381v-88h-106v-538h-77v538h-106v88h106v315h77v-315h106z"/>
<glyph glyph-name="daggerdbl" horiz-adv-x="212" unicode="‡" d="M320 430v-87h-176v-158h176v-87h-176v-343h-77v343h-175v87h175v158h-175v87h175v266h77v-266h176z"/>
<glyph glyph-name="ellipsis" horiz-adv-x="408" unicode="…" d="M291 85h88v-85h-88v85zM158 85h88v-85h-88v85zM24 85h88v-85h-88v85z"/>
<glyph glyph-name="perthousand" horiz-adv-x="1052" unicode="‰" d="M613 698l-487 -698h-70q67 97 135.5 194.5t134.5 191.5l217 312h70zM527 68q21 0 40 8t33.5 22t22.5 33t8 40t-8 39.5t-22.5 32.5t-33.5 22.5t-40 8.5t-39.5 -8.5t-32.5 -22.5t-22 -32.5t-8 -39.5t8 -40t22 -33t32.5 -22t39.5 -8zM527 342q35 0 66 -13.5t54.5 -37 t37 -54.5t13.5 -66q0 -36 -13.5 -67t-37 -54.5t-54.5 -36.5t-66 -13t-66 13t-54 36.5t-36.5 54.5t-13.5 67q0 35 13.5 66t36.5 54.5t54 37t66 13.5zM886 68q22 0 41 8t33 22t22 33t8 40t-8 39.5t-22 32.5t-33 22.5t-41 8.5q-20 0 -38.5 -8.5t-32.5 -22.5t-22.5 -32.5 t-8.5 -39.5t8.5 -40t22.5 -33t32.5 -22t38.5 -8zM886 342q36 0 67 -13.5t54.5 -37t37 -54.5t13.5 -66q0 -36 -13.5 -67t-37 -54.5t-54.5 -36.5t-67 -13t-67 13t-54 36.5t-36 54.5t-13 67q0 35 13 66t36 54.5t54 37t67 13.5zM38 527q0 -20 8 -38.5t22 -32.5t33 -22.5t40 -8.5 t40 8.5t33.5 22.5t22.5 32.5t8 38.5q0 22 -8 41t-22.5 33t-33.5 22.5t-40 8.5t-40 -8.5t-33 -22.5t-22 -33t-8 -41zM313 527q0 -35 -14 -66t-37.5 -54t-54.5 -36t-66 -13t-66 13t-54 36t-36.5 54t-13.5 66q0 36 13.5 67t36.5 54.5t54 37t66 13.5t66 -13.5t54.5 -37 t37.5 -54.5t14 -67z"/>
<glyph glyph-name="guilsinglleft" d="M41 305q103 60 204 120t203 120v-100l-242 -140q17 -9 31.5 -18.5t31.5 -18.5l179 -104v-98z" unicode="‹"/>
<glyph glyph-name="guilsinglright" d="M65 65v99l246 141l-246 140v100l410 -240z" unicode="›"/>
<glyph glyph-name="fraction" horiz-adv-x="212" unicode="⁄" d="M259 728l-104 -354q-28 -97 -56.5 -194t-56.5 -197h-91l216 745h92z"/>
<glyph glyph-name="Euro" horiz-adv-x="547" unicode="€" d="M450 146l16 -13l47 -46l-11 -11q-38 -37 -85 -57t-99 -20q-51 0 -93 19.5t-74.5 54.5t-54.5 83t-33 106h-39v73h33v30v16q0 5 1 11h-34v75h44q27 111 93 172t157 61q48 0 95 -18t88 -53l10 -10l-58 -56l-11 10h1q-25 19 -57 29.5t-68 10.5q-50 0 -93.5 -37t-66.5 -109 h219v-75l-237 -2q-2 -14 -1.5 -20.5t0.5 -14.5v-5v-8q0 -4 1 -7h237v-73h-228q25 -83 70 -131t99 -48q33 0 65.5 14.5t59.5 38.5z"/>
<glyph glyph-name="trademark" horiz-adv-x="680" unicode="™" d="M308 328v382l160 -163l163 163v-382h-68v218l-95 -97l-94 97v-218h-66zM268 696v-64h-83v-304h-65v304h-82v64h230z"/>
<glyph glyph-name="partialdiff" horiz-adv-x="581" unicode="∂" d="M246 76q31 0 61 13t55 34t43.5 48.5t26.5 57.5q2 8 3 17.5t1 14.5q0 52 -34 86.5t-89 34.5q-35 0 -69.5 -15.5t-61.5 -41t-43.5 -59t-16.5 -70.5q0 -26 9 -47.5t25.5 -38t39.5 -25.5t50 -9zM147 397q40 34 87 51.5t95 17.5q26 0 54.5 -9t56.5 -24q-14 57 -33.5 100 t-41.5 74.5t-44.5 52.5t-41.5 36h143q21 -24 41.5 -61t37 -82.5t27 -98t10.5 -108.5q0 -72 -24 -136.5t-66 -113t-98 -77t-119 -28.5q-42 0 -77.5 14t-61.5 39t-41 60t-15 76q0 61 30 118t81 99z"/>
<glyph glyph-name="product" horiz-adv-x="531" unicode="∏" d="M473 -245h-86v855h-253v-855h-87v941h426v-941z"/>
<glyph glyph-name="summation" horiz-adv-x="574" unicode="∑" d="M524 -245h-493l270 470q-26 46 -52.5 90.5t-53.5 92.5l-164 288h494v-86h-347l221 -385l-221 -384h346v-86z"/>
<glyph glyph-name="minus" horiz-adv-x="415" unicode="−" d="M357 304v-87h-318v87h318z"/>
<glyph glyph-name="radical" horiz-adv-x="628" unicode="√" d="M609 745q-54 -114 -104 -224t-101 -219l-150 -325l-128 254l-28 -35l-29 -39l-37 -49v143q13 19 27 37.5t28 36.5l50 68l111 -220q41 88 85.5 184.5t86.5 185.5l43 91q14 28 27 56.5t25 54.5h94z"/>
<glyph glyph-name="infinity" horiz-adv-x="574" unicode="∞" d="M466 373q0 9 -3 20t-10.5 21t-19.5 16.5t-29 6.5q-24 0 -43 -13t-45 -52q38 -67 88 -67q16 0 28 6.5t19.5 16.5t11 22t3.5 23zM165 305q22 -1 46 17q20 14 34 39q-2 2 -3 6q-2 -1 -3 -3l-5 9l6 2v1q5 1 9 1q-16 27 -39 43q-25 17 -45 17t-32 -7.5t-19 -18t-9.5 -22 t-2.5 -19.5q0 -33 19.5 -49t43.5 -16zM534 373q0 -22 -7.5 -45.5t-22.5 -42.5t-38.5 -31t-54.5 -12q-38 0 -71.5 23t-56.5 52q-29 -35 -62 -55t-61 -20q-22 0 -44.5 7.5t-41 23.5t-30 40.5t-11.5 58.5q0 28 9.5 51.5t26.5 40.5t40 26.5t50 9.5q33 0 67 -19.5t57 -51.5 q10 13 23 25.5t28.5 22.5t34 16.5t40.5 6.5q26 0 49 -9t40 -26t26.5 -40.5t9.5 -51.5z"/>
<glyph glyph-name="approxequal" horiz-adv-x="453" unicode="≈" d="M404 188q0 -1 0.5 -2.5t0.5 -2.5q1 -3 1 -8v-10q0 -54 -31.5 -84t-76.5 -30q-29 0 -48.5 9t-37.5 22h1l-7 5q-5 3 -16.5 7.5t-35.5 14.5q-4 2 -10 2q-16 0 -22 -20t-7 -42h-73q-1 7 -1 13v13q0 21 6 42t19 38t34 27.5t50 10.5q19 0 39.5 -9.5t41.5 -22.5q18 -12 36 -20.5 t34 -8.5q3 0 7 1.5t11 8.5q2 2 6.5 11t5.5 40h67zM404 370q0 -1 0.5 -2.5t0.5 -2.5q1 -3 1 -8v-10q0 -54 -31.5 -84t-76.5 -30q-29 0 -48.5 9t-37.5 22h1l-7 5q-5 3 -16.5 7.5t-35.5 14.5q-4 2 -10 2q-16 0 -22 -20t-7 -42h-73q-1 7 -1 13v13q0 21 6 42t19 38t34 27.5 t50 10.5q19 0 39.5 -9.5t41.5 -22.5q18 -12 36 -20.5t34 -8.5q3 0 7 1.5t11 8.5q2 2 6.5 11t5.5 40h67z"/>
<glyph glyph-name="notequal" horiz-adv-x="514" unicode="≠" d="M469 435v-87h-158q0 -2 -1 -3l-26 -85h185v-88h-212l-56 -183h-93l56 183h-122v88h150l27 88h-177v87h204l56 183h94q-21 -69 -43 -138q-7 -23 -14 -45h130z"/>
<glyph glyph-name="lessequal" horiz-adv-x="518" unicode="≤" d="M475 87v-87h-392v87h392zM26 463l448 238v-99l-264 -139l87 -46q44 -26 88.5 -50t88.5 -47v-97z"/>
<glyph glyph-name="greaterequal" horiz-adv-x="511" unicode="≥" d="M426 87v-87h-392v87h392zM35 223v98l263 142q-24 11 -53 27t-51 29q-36 18 -80 41t-79 42v99l449 -238z"/>
<glyph glyph-name="lozenge" horiz-adv-x="400" unicode="◊" d="M198 140q24 47 53.5 102.5t55.5 102.5l-109 207l-111 -207zM386 345l-185 -351l-8 2l-1 5q-46 87 -92 172t-92 172l190 357z"/>
</font>
</defs>
</svg>
